SplineFontDB: 3.0
FontName: NimbusSanL-BoldCondItal
FullName: Nimbus Sans L Bold Condensed Italic
FamilyName: Nimbus Sans L
Weight: Bold
Copyright: Copyright (URW)++,Copyright 2006 by (URW)++ Design & Development
Version: 1.10
ItalicAngle: -12
UnderlinePosition: -109
UnderlineWidth: 55
Ascent: 800
Descent: 200
LayerCount: 2
Layer: 0 0 "Back"  1
Layer: 1 0 "Fore"  0
UniqueID: 5082803
OS2Version: 0
OS2_WeightWidthSlopeOnly: 0
OS2_UseTypoMetrics: 0
CreationTime: 1464335511
ModificationTime: 1464335511
OS2TypoAscent: 0
OS2TypoAOffset: 1
OS2TypoDescent: 0
OS2TypoDOffset: 1
OS2TypoLinegap: 0
OS2WinAscent: 0
OS2WinAOffset: 1
OS2WinDescent: 0
OS2WinDOffset: 1
HheadAscent: 0
HheadAOffset: 1
HheadDescent: 0
HheadDOffset: 1
OS2Vendor: 'PfEd'
DEI: 91125
Encoding: UnicodeBmp
UnicodeInterp: none
NameList: Adobe Glyph List
DisplaySize: -24
AntiAlias: 1
FitToEm: 1
BeginPrivate: 7
BlueValues 31 [-23 0 540 560 729 749 701 724]
BlueScale 8 0.039625
StdHW 5 [113]
StdVW 5 [118]
StemSnapH 9 [113 127]
StemSnapV 2 []
ForceBold 5 false
EndPrivate
BeginChars: 65537 243

StartChar: A
Encoding: 65 65 1
Width: 592
Flags: MW
HStem: 0 20 147 125<269 425 269 436 213 425> 535 20<396 396> 709 20<354 497 497 497>
LayerCount: 2
Fore
SplineSet
436 147 m 1
 213 147 l 1
 146 0 l 1
 21 0 l 1
 354 729 l 1
 497 729 l 1
 576 0 l 1
 451 0 l 1
 436 147 l 1
425 272 m 1
 396 555 l 1
 269 272 l 1
 425 272 l 1
EndSplineSet
EndChar

StartChar: B
Encoding: 66 66 2
Width: 592
Flags: W
HStem: 0 125<212 336> 314 125<267 391 245 400> 604 125<295 429 295 295>
VStem: 466 121<233.5 267.5> 503 122<536.5 549>
LayerCount: 2
Fore
SplineSet
67 0 m 1xf0
 194 729 l 1
 460 729 l 2
 521 729 563 712 591 676 c 0
 613 648 625 610 625 571 c 0xe8
 625 502 591 438 529 388 c 1
 570 348 587 310 587 256 c 0
 587 194 559 122 517 74 c 0
 471 23 416 0 336 0 c 2
 67 0 l 1xf0
267 439 m 1
 400 439 l 2
 444 439 463 447 482 474 c 0
 493 490 503 521 503 542 c 0
 503 556 497 575 490 584 c 0
 478 599 462 604 429 604 c 2
 295 604 l 1
 267 439 l 1
212 125 m 1xf0
 358 125 l 2
 406 125 429 138 448 174 c 0
 458 193 466 223 466 244 c 0
 466 291 442 314 391 314 c 2
 245 314 l 1
 212 125 l 1xf0
EndSplineSet
EndChar

StartChar: C
Encoding: 67 67 3
Width: 592
Flags: MW
HStem: -23 128<291 370 291 389> 613 128<389.5 445>
VStem: 88 122<211.5 301>
LayerCount: 2
Fore
SplineSet
647 482 m 1
 532 482 l 1
 531 523 528 542 517 562 c 0
 498 596 466 613 424 613 c 0
 355 613 304 576 264 496 c 0
 230 429 210 343 210 264 c 0
 210 159 251 105 331 105 c 0
 409 105 467 157 491 249 c 1
 609 249 l 1
 573 79 463 -23 315 -23 c 0
 174 -23 88 74 88 234 c 0
 88 368 126 507 187 594 c 1
 254 692 339 741 438 741 c 0
 564 741 651 656 651 532 c 0
 651 523 651 519 647 482 c 1
EndSplineSet
EndChar

StartChar: D
Encoding: 68 68 4
Width: 592
Flags: MW
HStem: 0 125<208 297> 604 125<291 402 291 291>
VStem: 514 122<432 515>
LayerCount: 2
Fore
SplineSet
63 0 m 1
 190 729 l 1
 424 729 l 2
 572 729 636 654 636 480 c 0
 636 356 601 229 539 131 c 0
 479 36 413 0 297 0 c 2
 63 0 l 1
208 125 m 1
 318 125 l 2
 391 125 432 155 468 234 c 0
 494 293 514 394 514 470 c 0
 514 560 477 604 402 604 c 2
 291 604 l 1
 208 125 l 1
EndSplineSet
EndChar

StartChar: E
Encoding: 69 69 5
Width: 547
Flags: MW
HStem: 0 125<210 512> 314 125<243 551 265 529> 604 125<293 603 293 293>
LayerCount: 2
Fore
SplineSet
243 314 m 1
 210 125 l 1
 534 125 l 1
 512 0 l 1
 65 0 l 1
 192 729 l 1
 625 729 l 1
 603 604 l 1
 293 604 l 1
 265 439 l 1
 551 439 l 1
 529 314 l 1
 243 314 l 1
EndSplineSet
EndChar

StartChar: F
Encoding: 70 70 6
Width: 501
Flags: MW
HStem: 0 20 314 125<239 522 261 501> 604 125<289 586 289 289>
LayerCount: 2
Fore
SplineSet
239 314 m 1
 184 0 l 1
 61 0 l 1
 188 729 l 1
 608 729 l 1
 586 604 l 1
 289 604 l 1
 261 439 l 1
 522 439 l 1
 501 314 l 1
 239 314 l 1
EndSplineSet
EndChar

StartChar: G
Encoding: 71 71 7
Width: 638
Flags: MW
HStem: -23 128<309 362> 267 125<413 527 391 652> 613 128<399 465>
VStem: 88 122<232.5 317.5 232.5 322>
LayerCount: 2
Fore
SplineSet
652 392 m 1
 583 -2 l 1
 510 -2 l 1
 515 88 l 1
 455 9 400 -23 324 -23 c 0
 180 -23 88 88 88 262 c 0
 88 382 130 512 197 604 c 1
 265 695 349 741 449 741 c 0
 582 741 672 655 672 528 c 0
 672 522 671 510 670 496 c 1
 557 496 l 1
 550 572 504 613 426 613 c 0
 354 613 297 573 257 494 c 0
 230 440 210 351 210 284 c 0
 210 181 269 105 349 105 c 0
 431 105 502 170 527 267 c 1
 391 267 l 1
 413 392 l 1
 652 392 l 1
EndSplineSet
EndChar

StartChar: H
Encoding: 72 72 8
Width: 592
Flags: MW
HStem: 0 20 331 125<259 474 237 495> 709 20<183 306 306 306 543 666 666 666>
LayerCount: 2
Fore
SplineSet
474 331 m 1
 237 331 l 1
 179 0 l 1
 56 0 l 1
 183 729 l 1
 306 729 l 1
 259 456 l 1
 495 456 l 1
 543 729 l 1
 666 729 l 1
 539 0 l 1
 416 0 l 1
 474 331 l 1
EndSplineSet
EndChar

StartChar: I
Encoding: 73 73 9
Width: 228
Flags: MW
HStem: 0 20 709 20<179 302 302 302>
LayerCount: 2
Fore
SplineSet
302 729 m 1
 175 0 l 1
 52 0 l 1
 179 729 l 1
 302 729 l 1
EndSplineSet
EndChar

StartChar: J
Encoding: 74 74 10
Width: 456
Flags: MW
HStem: -23 128<210.5 230> 709 20<402 525 525 525>
VStem: 48 125<142.5 144.5>
LayerCount: 2
Fore
SplineSet
402 729 m 1
 525 729 l 1
 431 190 l 2
 418 114 389 55 349 23 c 0
 314 -5 257 -23 203 -23 c 0
 105 -23 48 35 48 135 c 0
 48 154 50 176 54 198 c 2
 66 270 l 1
 189 270 l 1
 176 193 l 2
 174 181 173 170 173 159 c 0
 173 126 194 105 227 105 c 0
 270 105 299 135 308 190 c 2
 402 729 l 1
EndSplineSet
EndChar

StartChar: K
Encoding: 75 75 11
Width: 592
Flags: MW
HStem: 0 20 709 20<188 311 311 311 546 692 692 692>
LayerCount: 2
Fore
SplineSet
225 234 m 1
 184 0 l 1
 61 0 l 1
 188 729 l 1
 311 729 l 1
 255 409 l 1
 546 729 l 1
 692 729 l 1
 396 410 l 1
 588 0 l 1
 441 0 l 1
 300 314 l 1
 225 234 l 1
EndSplineSet
EndChar

StartChar: L
Encoding: 76 76 12
Width: 501
Flags: MW
HStem: 0 125<211 475> 709 20<193 316 316 316>
LayerCount: 2
Fore
SplineSet
316 729 m 1
 211 125 l 1
 497 125 l 1
 475 0 l 1
 66 0 l 1
 193 729 l 1
 316 729 l 1
EndSplineSet
EndChar

StartChar: M
Encoding: 77 77 13
Width: 683
Flags: MW
HStem: 0 20 709 20<181 359 359 359 583 763 763 763>
LayerCount: 2
Fore
SplineSet
408 0 m 1
 284 0 l 1
 278 619 l 1
 170 0 l 1
 54 0 l 1
 181 729 l 1
 359 729 l 1
 376 169 l 1
 583 729 l 1
 763 729 l 1
 636 0 l 1
 520 0 l 1
 628 619 l 1
 408 0 l 1
EndSplineSet
EndChar

StartChar: N
Encoding: 78 78 14
Width: 592
Flags: MW
HStem: 0 20 709 20<183 306 306 306 553 669 669 669>
LayerCount: 2
Fore
SplineSet
669 729 m 1
 542 0 l 1
 421 0 l 1
 264 523 l 1
 172 0 l 1
 56 0 l 1
 183 729 l 1
 306 729 l 1
 463 214 l 1
 553 729 l 1
 669 729 l 1
EndSplineSet
EndChar

StartChar: O
Encoding: 79 79 15
Width: 638
Flags: MW
HStem: -23 128<302 375.5> 613 128<393.5 467>
VStem: 87 122<227.5 319 227.5 321> 557 122<398.5 491.5>
LayerCount: 2
Fore
SplineSet
441 741 m 0
 592 741 679 636 679 454 c 0
 679 333 640 209 573 116 c 0
 503 19 427 -23 324 -23 c 0
 178 -23 87 86 87 262 c 0
 87 380 128 509 194 602 c 1
 262 696 342 741 441 741 c 0
426 613 m 0
 361 613 306 576 264 502 c 0
 231 443 209 356 209 282 c 0
 209 173 261 105 343 105 c 0
 409 105 462 142 503 216 c 0
 536 275 557 361 557 436 c 0
 557 547 508 613 426 613 c 0
EndSplineSet
EndChar

StartChar: P
Encoding: 80 80 16
Width: 547
Flags: MW
HStem: 0 20 260 125<230 378 252 378 378 384> 604 125<290 416 290 290>
VStem: 490 122<520.5 549>
LayerCount: 2
Fore
SplineSet
230 260 m 1
 185 0 l 1
 62 0 l 1
 189 729 l 1
 442 729 l 2
 496 729 530 718 560 690 c 0
 593 659 612 612 612 561 c 0
 612 480 583 394 536 336 c 0
 492 282 447 260 384 260 c 2
 230 260 l 1
252 385 m 1
 378 385 l 2
 422 385 451 402 471 439 c 0
 482 460 490 497 490 525 c 0
 490 573 460 604 416 604 c 2
 290 604 l 1
 252 385 l 1
EndSplineSet
EndChar

StartChar: Q
Encoding: 81 81 17
Width: 638
Flags: MW
HStem: -23 128<301.5 354.5> 613 128<392 466.5>
VStem: 89 122<228 320 228 322.5> 559 122<395 491>
LayerCount: 2
Fore
SplineSet
562 103 m 1
 615 27 l 1
 538 -54 l 1
 482 28 l 1
 431 -8 384 -23 325 -23 c 0
 180 -23 89 87 89 263 c 0
 89 382 129 510 195 602 c 0
 263 697 341 741 441 741 c 0
 591 741 681 633 681 453 c 0
 681 330 631 184 562 103 c 1
441 278 m 1
 495 200 l 1
 533 260 559 355 559 435 c 0
 559 547 509 613 424 613 c 0
 360 613 307 576 265 502 c 0
 232 442 211 357 211 283 c 0
 211 173 261 105 342 105 c 0
 369 105 395 112 415 124 c 1
 364 197 l 1
 441 278 l 1
EndSplineSet
EndChar

StartChar: R
Encoding: 82 82 18
Width: 592
Flags: W
HStem: 0 20 289 125<239 409 261 380> 604 125<294 431 294 294>
VStem: 419 127<53.5 55.5> 450 121<229 289.5> 522 122<520.5 598.5>
LayerCount: 2
Fore
SplineSet
239 289 m 1xe8
 189 0 l 1
 66 0 l 1
 193 729 l 1
 502 729 l 2
 550 729 584 715 609 683 c 0
 631 655 644 618 644 579 c 0xe4
 644 523 624 461 592 420 c 0
 572 395 550 378 507 352 c 1
 551 335 571 309 571 270 c 0xe8
 571 250 565 199 557 143 c 1
 547 83 546 74 546 61 c 0
 546 46 550 37 560 27 c 1
 556 0 l 1
 425 0 l 1
 420 18 419 26 419 41 c 0xf0
 419 70 423 98 440 173 c 0
 448 211 450 224 450 234 c 0
 450 270 426 289 380 289 c 2
 239 289 l 1xe8
261 414 m 1
 409 414 l 2
 452 414 478 426 499 457 c 0
 513 477 522 507 522 534 c 0
 522 556 513 576 497 588 c 1
 483 600 466 604 431 604 c 2
 294 604 l 1
 261 414 l 1
EndSplineSet
EndChar

StartChar: S
Encoding: 83 83 19
Width: 547
Flags: W
HStem: -23 128<263 331.5> 613 128<349 401>
VStem: 62 122<166.5 181.5> 124 122<489.5 509> 441 122<231 239> 474 120<527.5 623>
LayerCount: 2
Fore
SplineSet
588 507 m 1xd4
 473 507 l 1
 474 516 474 525 474 530 c 0
 474 584 436 613 366 613 c 0
 291 613 246 574 246 509 c 0xd4
 246 470 267 455 345 436 c 2
 435 414 l 2
 518 394 563 342 563 265 c 0
 563 197 539 121 503 74 c 0
 454 10 380 -23 283 -23 c 0
 144 -23 62 50 62 174 c 0
 62 189 63 198 66 218 c 1
 185 218 l 1
 184 209 184 201 184 195 c 0
 184 138 226 105 300 105 c 0
 386 105 441 148 441 216 c 0xe8
 441 262 417 283 342 301 c 2
 262 321 l 2
 164 345 124 388 124 471 c 0
 124 547 153 621 203 672 c 0
 249 718 310 741 388 741 c 0
 518 741 594 678 594 568 c 0
 594 547 593 534 588 507 c 1xd4
EndSplineSet
EndChar

StartChar: T
Encoding: 84 84 20
Width: 501
Flags: MW
HStem: 0 20 604 125<138 298 116 617 421 595 421 421>
LayerCount: 2
Fore
SplineSet
421 604 m 1
 316 0 l 1
 192 0 l 1
 298 604 l 1
 116 604 l 1
 138 729 l 1
 617 729 l 1
 595 604 l 1
 421 604 l 1
EndSplineSet
EndChar

StartChar: U
Encoding: 85 85 21
Width: 592
Flags: MW
HStem: -23 128<291 336.5> 709 20<190 313 313 313 541 664 664 664>
VStem: 98 124<163 178>
LayerCount: 2
Fore
SplineSet
541 729 m 1
 664 729 l 1
 578 235 l 2
 563 152 536 96 490 51 c 0
 440 3 373 -23 300 -23 c 0
 177 -23 98 51 98 166 c 0
 98 190 101 219 107 255 c 2
 190 729 l 1
 313 729 l 1
 227 235 l 2
 224 218 222 201 222 190 c 0
 222 136 259 105 323 105 c 0
 398 105 439 145 455 235 c 2
 541 729 l 1
EndSplineSet
EndChar

StartChar: V
Encoding: 86 86 22
Width: 547
Flags: MW
HStem: 0 20 709 20<147 270 270 270 534 658 658 658>
LayerCount: 2
Fore
SplineSet
328 0 m 1
 224 0 l 1
 147 729 l 1
 270 729 l 1
 308 180 l 1
 534 729 l 1
 658 729 l 1
 328 0 l 1
EndSplineSet
EndChar

StartChar: W
Encoding: 87 87 23
Width: 774
Flags: MW
HStem: 0 20 709 20<138 268 268 268 450 580 580 580 761 892 892 892>
LayerCount: 2
Fore
SplineSet
599 0 m 1
 488 0 l 1
 485 555 l 1
 291 0 l 1
 180 0 l 1
 138 729 l 1
 268 729 l 1
 266 183 l 1
 450 729 l 1
 580 729 l 1
 577 181 l 1
 761 729 l 1
 892 729 l 1
 599 0 l 1
EndSplineSet
EndChar

StartChar: X
Encoding: 88 88 24
Width: 547
Flags: MW
HStem: 0 20 709 20<153 299 299 299 514 658 658 658>
LayerCount: 2
Fore
SplineSet
409 372 m 1
 537 0 l 1
 391 0 l 1
 317 249 l 1
 161 0 l 1
 18 0 l 1
 272 367 l 1
 153 729 l 1
 299 729 l 1
 364 493 l 1
 514 729 l 1
 658 729 l 1
 409 372 l 1
EndSplineSet
EndChar

StartChar: Y
Encoding: 89 89 25
Width: 547
Flags: MW
HStem: 0 20 709 20<149 286 286 286 523 660 660 660>
LayerCount: 2
Fore
SplineSet
391 270 m 1
 344 0 l 1
 221 0 l 1
 268 270 l 1
 149 729 l 1
 286 729 l 1
 354 414 l 1
 523 729 l 1
 660 729 l 1
 391 270 l 1
EndSplineSet
EndChar

StartChar: Z
Encoding: 90 90 26
Width: 501
Flags: MW
HStem: 0 125<47 47 191 474 25 47> 604 125<152 436 130 601 580 580>
LayerCount: 2
Fore
SplineSet
601 729 m 1
 580 604 l 1
 191 125 l 1
 496 125 l 1
 474 0 l 1
 25 0 l 1
 47 125 l 1
 436 604 l 1
 130 604 l 1
 152 729 l 1
 601 729 l 1
EndSplineSet
EndChar

StartChar: AE
Encoding: 198 198 27
Width: 820
Flags: MW
HStem: 0 125<499 794> 152 125<254 381 201 403> 314 125<554 810 532 832> 604 125<406 460 406 406 583 884 583 583>
LayerCount: 2
Fore
SplineSet
381 152 m 1
 201 152 l 1
 131 0 l 1
 1 0 l 1
 345 729 l 1
 905 729 l 1
 884 604 l 1
 583 604 l 1
 554 439 l 1
 832 439 l 1
 810 314 l 1
 532 314 l 1
 499 125 l 1
 816 125 l 1
 794 0 l 1
 355 0 l 1
 381 152 l 1
403 277 m 1
 460 604 l 1
 406 604 l 1
 254 277 l 1
 403 277 l 1
EndSplineSet
EndChar

StartChar: OE
Encoding: 338 338 28
Width: 820
Flags: W
HStem: -23 128<277 295.5> 0 125<535 796> 314 125<568 834 589 812> 604 125<618 886 618 618> 613 128<362.5 418>
VStem: 74 122<221.5 308 221.5 314>
LayerCount: 2
Fore
SplineSet
568 314 m 1x34
 535 125 l 1
 818 125 l 1
 796 0 l 1
 394 0 l 1x64
 405 59 l 1
 359 -1 323 -23 268 -23 c 0
 151 -23 74 84 74 245 c 0
 74 383 122 535 195 627 c 0
 255 704 321 741 395 741 c 0x8c
 450 741 482 723 512 677 c 1
 521 729 l 1
 908 729 l 1
 886 604 l 1
 618 604 l 1
 589 439 l 1
 834 439 l 1
 812 314 l 1
 568 314 l 1x34
421 178 m 1x8c
 484 540 l 1
 468 591 441 613 395 613 c 0
 330 613 276 566 237 475 c 0
 211 415 196 341 196 275 c 0
 196 168 240 105 314 105 c 0
 358 105 389 126 421 178 c 1x8c
EndSplineSet
EndChar

StartChar: Oslash
Encoding: 216 216 29
Width: 638
Flags: W
HStem: -23 128<323 374> 613 128<398 450.5> 729 20<709 709>
VStem: 90 122<266.5 319 266.5 323.5> 560 122<399 451.5>
LayerCount: 2
Fore
SplineSet
149 56 m 1xb8
 62 -39 l 1
 28 7 l 1
 119 107 l 1
 99 152 90 200 90 263 c 0
 90 384 129 508 198 602 c 0
 266 696 347 741 449 741 c 0xd8
 526 741 587 713 626 659 c 1
 709 749 l 1
 743 704 l 1
 654 607 l 1
 673 563 682 511 682 453 c 0
 682 333 642 210 575 116 c 1
 507 23 424 -23 324 -23 c 0
 248 -23 188 4 149 56 c 1xb8
556 500 m 1
 242 157 l 1
 265 123 301 105 345 105 c 0
 410 105 464 143 505 216 c 0
 540 277 560 359 560 439 c 0
 560 464 559 478 556 500 c 1
217 213 m 1
 533 557 l 1
 509 595 474 613 427 613 c 0
 362 613 308 576 267 502 c 0
 233 442 212 358 212 280 c 0
 212 253 213 238 217 213 c 1
EndSplineSet
EndChar

StartChar: Adieresis
Encoding: 196 196 30
Width: 592
Flags: MW
HStem: 0 20 147 125<269 425 269 436 213 425> 535 20<396 396> 709 20<354 497 497 497> 800 120<337 407 316 428 337 469 490 559>
LayerCount: 2
Fore
SplineSet
436 147 m 1
 213 147 l 1
 146 0 l 1
 21 0 l 1
 354 729 l 1
 497 729 l 1
 576 0 l 1
 451 0 l 1
 436 147 l 1
425 272 m 1
 396 555 l 1
 269 272 l 1
 425 272 l 1
428 920 m 1
 407 800 l 1
 316 800 l 1
 337 920 l 1
 428 920 l 1
580 920 m 1
 559 800 l 1
 469 800 l 1
 490 920 l 1
 580 920 l 1
EndSplineSet
EndChar

StartChar: Aacute
Encoding: 193 193 31
Width: 592
Flags: MW
HStem: 0 20 147 125<269 425 269 436 213 425> 535 20<396 396> 709 20<354 497 497 497>
LayerCount: 2
Fore
SplineSet
436 147 m 1
 213 147 l 1
 146 0 l 1
 21 0 l 1
 354 729 l 1
 497 729 l 1
 576 0 l 1
 451 0 l 1
 436 147 l 1
425 272 m 1
 396 555 l 1
 269 272 l 1
 425 272 l 1
585 936 m 1
 455 786 l 1
 398 786 l 1
 481 936 l 1
 585 936 l 1
EndSplineSet
EndChar

StartChar: Agrave
Encoding: 192 192 32
Width: 592
Flags: MW
HStem: 0 20 147 125<269 425 269 436 213 425> 535 20<396 396> 709 20<354 497 497 497> 786 150<416 431 334 468 416 416>
LayerCount: 2
Fore
SplineSet
436 147 m 1
 213 147 l 1
 146 0 l 1
 21 0 l 1
 354 729 l 1
 497 729 l 1
 576 0 l 1
 451 0 l 1
 436 147 l 1
425 272 m 1
 396 555 l 1
 269 272 l 1
 425 272 l 1
334 936 m 1
 431 936 l 1
 468 786 l 1
 416 786 l 1
 334 936 l 1
EndSplineSet
EndChar

StartChar: Acircumflex
Encoding: 194 194 33
Width: 592
Flags: MW
HStem: 0 20 147 125<269 425 269 436 213 425> 535 20<396 396> 709 20<354 497 497 497>
LayerCount: 2
Fore
SplineSet
436 147 m 1
 213 147 l 1
 146 0 l 1
 21 0 l 1
 354 729 l 1
 497 729 l 1
 576 0 l 1
 451 0 l 1
 436 147 l 1
425 272 m 1
 396 555 l 1
 269 272 l 1
 425 272 l 1
419 936 m 1
 507 936 l 1
 566 789 l 1
 502 789 l 1
 452 886 l 1
 367 789 l 1
 305 789 l 1
 419 936 l 1
EndSplineSet
EndChar

StartChar: Atilde
Encoding: 195 195 34
Width: 592
Flags: MW
HStem: 0 20 147 125<269 425 269 436 213 425> 535 20<396 396> 709 20<354 497 497 497> 852 69<370.5 380>
LayerCount: 2
Fore
SplineSet
436 147 m 1
 213 147 l 1
 146 0 l 1
 21 0 l 1
 354 729 l 1
 497 729 l 1
 576 0 l 1
 451 0 l 1
 436 147 l 1
425 272 m 1
 396 555 l 1
 269 272 l 1
 425 272 l 1
561 923 m 1
 606 923 l 1
 587 844 549 801 496 801 c 0
 482 801 466 805 455 812 c 2
 414 837 l 2
 404 843 382 852 378 852 c 0
 363 852 349 836 336 803 c 1
 292 803 l 1
 311 878 347 921 391 921 c 0
 409 921 424 917 449 903 c 1
 490 882 l 1
 505 873 506 873 511 873 c 0
 536 873 549 885 561 923 c 1
EndSplineSet
EndChar

StartChar: Aring
Encoding: 197 197 35
Width: 592
Flags: MW
HStem: 0 20 147 125<269 425 269 436 213 425> 535 20<396 396> 709 20<354 497 497 497> 773 50<430 450 430 454> 903 50<443.5 462.5>
VStem: 371 40<845 867.5 845 872.5> 482 40<858.5 880>
LayerCount: 2
Fore
SplineSet
436 147 m 1
 213 147 l 1
 146 0 l 1
 21 0 l 1
 354 729 l 1
 497 729 l 1
 576 0 l 1
 451 0 l 1
 436 147 l 1
425 272 m 1
 396 555 l 1
 269 272 l 1
 425 272 l 1
462 953 m 0
 496 953 522 922 522 882 c 0
 522 825 478 773 430 773 c 0
 395 773 371 802 371 844 c 0
 371 901 415 953 462 953 c 0
455 903 m 0
 432 903 411 880 411 855 c 0
 411 835 421 823 439 823 c 0
 461 823 482 846 482 871 c 0
 482 889 470 903 455 903 c 0
EndSplineSet
EndChar

StartChar: Ccedilla
Encoding: 199 199 36
Width: 592
Flags: MW
HStem: -220 50<247 274.5 247 299.5> -93 198<271 370> 613 128<389.5 445.5>
VStem: 88 122<211.5 301> 314 71<-138.5 -116>
LayerCount: 2
Fore
SplineSet
319 -23 m 1
 298 -63 l 1
 310 -58 321 -56 333 -56 c 0
 366 -56 385 -77 385 -114 c 0
 385 -179 337 -220 262 -220 c 0
 225 -220 202 -214 153 -192 c 1
 178 -140 l 1
 217 -163 235 -170 259 -170 c 0
 290 -170 314 -151 314 -126 c 0
 314 -106 299 -93 278 -93 c 0
 264 -93 254 -96 234 -106 c 1
 279 -22 l 1
 163 -11 88 90 88 234 c 0
 88 368 126 506 187 594 c 0
 254 692 339 741 438 741 c 0
 564 741 651 656 651 531 c 0
 651 523 650 512 647 482 c 1
 532 482 l 1
 531 523 528 542 517 562 c 0
 499 596 467 613 424 613 c 0
 355 613 304 576 264 496 c 0
 230 428 210 343 210 264 c 0
 210 159 251 105 331 105 c 0
 409 105 467 157 491 249 c 1
 609 249 l 1
 575 82 464 -22 319 -23 c 1
EndSplineSet
EndChar

StartChar: Eth
Encoding: 208 208 37
Width: 592
Flags: MW
HStem: 0 125<208 297> 341 80<74 123 60 137 260 388> 604 125<292 402 292 292>
VStem: 514 122<430 514.5>
LayerCount: 2
Fore
SplineSet
123 341 m 1
 60 341 l 1
 74 421 l 1
 137 421 l 1
 190 729 l 1
 424 729 l 2
 572 729 636 654 636 480 c 0
 636 355 601 230 540 131 c 1
 480 36 413 0 297 0 c 2
 63 0 l 1
 123 341 l 1
246 341 m 1
 208 125 l 1
 319 125 l 2
 392 125 432 155 468 234 c 0
 495 295 514 391 514 469 c 0
 514 560 478 604 402 604 c 2
 292 604 l 1
 260 421 l 1
 402 421 l 1
 388 341 l 1
 246 341 l 1
EndSplineSet
EndChar

StartChar: Edieresis
Encoding: 203 203 38
Width: 547
Flags: MW
HStem: 0 125<210 512> 314 125<243 551 265 529> 604 125<293 603 293 293> 800 120<322 391 300 412 322 453 474 543>
LayerCount: 2
Fore
SplineSet
243 314 m 1
 210 125 l 1
 534 125 l 1
 512 0 l 1
 65 0 l 1
 192 729 l 1
 625 729 l 1
 603 604 l 1
 293 604 l 1
 265 439 l 1
 551 439 l 1
 529 314 l 1
 243 314 l 1
412 920 m 1
 391 800 l 1
 300 800 l 1
 322 920 l 1
 412 920 l 1
565 920 m 1
 543 800 l 1
 453 800 l 1
 474 920 l 1
 565 920 l 1
EndSplineSet
EndChar

StartChar: Eacute
Encoding: 201 201 39
Width: 547
Flags: MW
HStem: 0 125<210 512> 314 125<243 551 265 529> 604 125<293 603 293 293>
LayerCount: 2
Fore
SplineSet
243 314 m 1
 210 125 l 1
 534 125 l 1
 512 0 l 1
 65 0 l 1
 192 729 l 1
 625 729 l 1
 603 604 l 1
 293 604 l 1
 265 439 l 1
 551 439 l 1
 529 314 l 1
 243 314 l 1
554 936 m 1
 424 786 l 1
 367 786 l 1
 450 936 l 1
 554 936 l 1
EndSplineSet
EndChar

StartChar: Egrave
Encoding: 200 200 40
Width: 547
Flags: MW
HStem: 0 125<210 512> 314 125<243 551 265 529> 604 125<293 603 293 293> 786 150<411 426 328 463 411 411>
LayerCount: 2
Fore
SplineSet
243 314 m 1
 210 125 l 1
 534 125 l 1
 512 0 l 1
 65 0 l 1
 192 729 l 1
 625 729 l 1
 603 604 l 1
 293 604 l 1
 265 439 l 1
 551 439 l 1
 529 314 l 1
 243 314 l 1
328 936 m 1
 426 936 l 1
 463 786 l 1
 411 786 l 1
 328 936 l 1
EndSplineSet
EndChar

StartChar: Ecircumflex
Encoding: 202 202 41
Width: 547
Flags: MW
HStem: 0 125<210 512> 314 125<243 551 265 529> 604 125<293 603 293 293>
LayerCount: 2
Fore
SplineSet
243 314 m 1
 210 125 l 1
 534 125 l 1
 512 0 l 1
 65 0 l 1
 192 729 l 1
 625 729 l 1
 603 604 l 1
 293 604 l 1
 265 439 l 1
 551 439 l 1
 529 314 l 1
 243 314 l 1
405 936 m 1
 493 936 l 1
 552 789 l 1
 488 789 l 1
 438 886 l 1
 354 789 l 1
 291 789 l 1
 405 936 l 1
EndSplineSet
EndChar

StartChar: Idieresis
Encoding: 207 207 42
Width: 228
Flags: MW
HStem: 0 20 709 20<179 302 302 302> 800 120<153 223 132 244 153 285 306 375>
LayerCount: 2
Fore
SplineSet
302 729 m 1
 175 0 l 1
 52 0 l 1
 179 729 l 1
 302 729 l 1
244 920 m 1
 223 800 l 1
 132 800 l 1
 153 920 l 1
 244 920 l 1
396 920 m 1
 375 800 l 1
 285 800 l 1
 306 920 l 1
 396 920 l 1
EndSplineSet
EndChar

StartChar: Iacute
Encoding: 205 205 43
Width: 228
Flags: MW
HStem: 0 20 709 20<179 302 302 302>
LayerCount: 2
Fore
SplineSet
302 729 m 1
 175 0 l 1
 52 0 l 1
 179 729 l 1
 302 729 l 1
401 936 m 1
 272 786 l 1
 214 786 l 1
 298 936 l 1
 401 936 l 1
EndSplineSet
EndChar

StartChar: Igrave
Encoding: 204 204 44
Width: 228
Flags: MW
HStem: 0 20 709 20<179 302 302 302> 786 150<232 247 149 284 232 232>
LayerCount: 2
Fore
SplineSet
302 729 m 1
 175 0 l 1
 52 0 l 1
 179 729 l 1
 302 729 l 1
149 936 m 1
 247 936 l 1
 284 786 l 1
 232 786 l 1
 149 936 l 1
EndSplineSet
EndChar

StartChar: Icircumflex
Encoding: 206 206 45
Width: 228
Flags: MW
HStem: 0 20 709 20<179 302 302 302>
LayerCount: 2
Fore
SplineSet
302 729 m 1
 175 0 l 1
 52 0 l 1
 179 729 l 1
 302 729 l 1
237 936 m 1
 325 936 l 1
 383 789 l 1
 319 789 l 1
 270 886 l 1
 185 789 l 1
 122 789 l 1
 237 936 l 1
EndSplineSet
EndChar

StartChar: Lslash
Encoding: 321 321 46
Width: 501
Flags: MW
HStem: 0 125<225 490> 709 20<208 331 331 331>
LayerCount: 2
Fore
SplineSet
277 421 m 1
 430 531 l 1
 414 437 l 1
 260 327 l 1
 225 125 l 1
 511 125 l 1
 490 0 l 1
 80 0 l 1
 126 262 l 1
 44 201 l 1
 60 295 l 1
 143 356 l 1
 208 729 l 1
 331 729 l 1
 277 421 l 1
EndSplineSet
EndChar

StartChar: Ntilde
Encoding: 209 209 47
Width: 592
Flags: MW
HStem: 0 20 709 20<183 306 306 306 553 669 669 669> 852 69<369 378.5>
LayerCount: 2
Fore
SplineSet
669 729 m 1
 542 0 l 1
 421 0 l 1
 264 523 l 1
 172 0 l 1
 56 0 l 1
 183 729 l 1
 306 729 l 1
 463 214 l 1
 553 729 l 1
 669 729 l 1
560 923 m 1
 604 923 l 1
 586 844 548 801 495 801 c 0
 481 801 465 805 454 812 c 2
 412 837 l 2
 403 843 381 852 376 852 c 0
 362 852 349 837 335 803 c 1
 290 803 l 1
 309 878 346 921 390 921 c 0
 408 921 423 917 448 903 c 1
 489 882 l 1
 504 873 505 873 510 873 c 0
 535 873 547 885 560 923 c 1
EndSplineSet
EndChar

StartChar: Odieresis
Encoding: 214 214 48
Width: 638
Flags: MW
HStem: -23 128<302 375.5> 613 128<393.5 467> 800 120<361 430 340 451 361 492 513 583>
VStem: 87 122<227.5 319 227.5 321> 557 122<399 492>
LayerCount: 2
Fore
SplineSet
451 920 m 1
 430 800 l 1
 340 800 l 1
 361 920 l 1
 451 920 l 1
604 920 m 1
 583 800 l 1
 492 800 l 1
 513 920 l 1
 604 920 l 1
441 741 m 0
 592 741 679 636 679 454 c 0
 679 333 640 209 573 116 c 0
 503 19 427 -23 324 -23 c 0
 178 -23 87 86 87 262 c 0
 87 380 128 509 194 602 c 1
 262 696 342 741 441 741 c 0
426 613 m 0
 361 613 306 575 264 502 c 0
 231 443 209 356 209 282 c 0
 209 173 261 105 343 105 c 0
 409 105 462 142 503 216 c 0
 536 276 557 361 557 437 c 0
 557 547 508 613 426 613 c 0
EndSplineSet
EndChar

StartChar: Oacute
Encoding: 211 211 49
Width: 638
Flags: MW
HStem: -23 128<302 375.5> 613 128<393.5 467>
VStem: 87 122<227.5 319 227.5 321> 557 122<399 492>
LayerCount: 2
Fore
SplineSet
600 936 m 1
 470 786 l 1
 413 786 l 1
 496 936 l 1
 600 936 l 1
441 741 m 0
 592 741 679 636 679 454 c 0
 679 333 640 209 573 116 c 0
 503 19 427 -23 324 -23 c 0
 178 -23 87 86 87 262 c 0
 87 380 128 509 194 602 c 1
 262 696 342 741 441 741 c 0
426 613 m 0
 361 613 306 575 264 502 c 0
 231 443 209 356 209 282 c 0
 209 173 261 105 343 105 c 0
 409 105 462 142 503 216 c 0
 536 276 557 361 557 437 c 0
 557 547 508 613 426 613 c 0
EndSplineSet
EndChar

StartChar: Ograve
Encoding: 210 210 50
Width: 638
Flags: MW
HStem: -23 128<302 375.5> 613 128<393.5 467> 786 150<451 467 369 503 451 451>
VStem: 87 122<227.5 319 227.5 321> 557 122<399 492>
LayerCount: 2
Fore
SplineSet
369 936 m 1
 467 936 l 1
 503 786 l 1
 451 786 l 1
 369 936 l 1
441 741 m 0
 592 741 679 636 679 454 c 0
 679 333 640 209 573 116 c 0
 503 19 427 -23 324 -23 c 0
 178 -23 87 86 87 262 c 0
 87 380 128 509 194 602 c 1
 262 696 342 741 441 741 c 0
426 613 m 0
 361 613 306 575 264 502 c 0
 231 443 209 356 209 282 c 0
 209 173 261 105 343 105 c 0
 409 105 462 142 503 216 c 0
 536 276 557 361 557 437 c 0
 557 547 508 613 426 613 c 0
EndSplineSet
EndChar

StartChar: Ocircumflex
Encoding: 212 212 51
Width: 638
Flags: MW
HStem: -23 128<302 375.5> 613 128<393.5 467>
VStem: 87 122<227.5 319 227.5 321> 557 122<399 492>
LayerCount: 2
Fore
SplineSet
444 936 m 1
 532 936 l 1
 591 789 l 1
 527 789 l 1
 477 886 l 1
 392 789 l 1
 330 789 l 1
 444 936 l 1
441 741 m 0
 592 741 679 636 679 454 c 0
 679 333 640 209 573 116 c 0
 503 19 427 -23 324 -23 c 0
 178 -23 87 86 87 262 c 0
 87 380 128 509 194 602 c 1
 262 696 342 741 441 741 c 0
426 613 m 0
 361 613 306 575 264 502 c 0
 231 443 209 356 209 282 c 0
 209 173 261 105 343 105 c 0
 409 105 462 142 503 216 c 0
 536 276 557 361 557 437 c 0
 557 547 508 613 426 613 c 0
EndSplineSet
EndChar

StartChar: Otilde
Encoding: 213 213 52
Width: 638
Flags: MW
HStem: -23 128<302 375.5> 613 128<393.5 467> 852 69<395 404.5>
VStem: 87 122<227.5 319 227.5 321> 557 122<399 492>
LayerCount: 2
Fore
SplineSet
441 741 m 0
 592 741 679 636 679 454 c 0
 679 333 640 209 573 116 c 0
 503 19 427 -23 324 -23 c 0
 178 -23 87 86 87 262 c 0
 87 380 128 509 194 602 c 1
 262 696 342 741 441 741 c 0
426 613 m 0
 361 613 306 575 264 502 c 0
 231 443 209 356 209 282 c 0
 209 173 261 105 343 105 c 0
 409 105 462 142 503 216 c 0
 536 276 557 361 557 437 c 0
 557 547 508 613 426 613 c 0
586 923 m 1
 630 923 l 1
 620 880 611 859 595 840 c 0
 574 815 548 801 521 801 c 0
 507 801 491 805 479 812 c 2
 438 837 l 2
 428 843 407 852 402 852 c 0
 388 852 374 836 361 803 c 1
 316 803 l 1
 336 879 371 921 416 921 c 0
 434 921 448 917 473 903 c 1
 514 882 l 2
 530 873 531 873 536 873 c 0
 561 873 573 885 586 923 c 1
EndSplineSet
EndChar

StartChar: Scaron
Encoding: 352 352 53
Width: 547
Flags: W
HStem: -23 128<263 331.5> 613 128<349 401.5>
VStem: 62 122<166.5 181.5> 124 122<489.5 509> 441 122<231 239> 474 120<527 623>
LayerCount: 2
Fore
SplineSet
440 789 m 1xd4
 352 789 l 1
 293 936 l 1
 357 936 l 1
 407 839 l 1
 492 936 l 1
 554 936 l 1
 440 789 l 1xd4
588 507 m 1
 473 507 l 1
 474 516 474 524 474 530 c 0
 474 584 437 613 366 613 c 0
 292 613 246 574 246 509 c 0xd4
 246 470 267 455 345 436 c 2
 435 414 l 2
 518 394 563 342 563 265 c 0
 563 197 540 121 503 74 c 1
 455 10 380 -23 283 -23 c 0
 144 -23 62 50 62 174 c 0
 62 189 63 198 66 218 c 1
 185 218 l 1
 184 209 184 201 184 195 c 0
 184 138 226 105 300 105 c 0
 386 105 441 148 441 216 c 0xe8
 441 262 417 283 342 301 c 2
 262 321 l 2
 164 345 124 388 124 471 c 0
 124 547 153 621 203 672 c 0
 249 718 310 741 388 741 c 0
 518 741 594 678 594 568 c 0
 594 547 593 534 588 507 c 1
EndSplineSet
EndChar

StartChar: Udieresis
Encoding: 220 220 54
Width: 592
Flags: MW
HStem: -23 128<291 336.5> 800 120<336 405 314 426 336 467 488 557>
VStem: 98 124<163 179>
LayerCount: 2
Fore
SplineSet
426 920 m 1
 405 800 l 1
 314 800 l 1
 336 920 l 1
 426 920 l 1
579 920 m 1
 557 800 l 1
 467 800 l 1
 488 920 l 1
 579 920 l 1
541 729 m 1
 664 729 l 1
 578 235 l 2
 563 152 536 96 490 51 c 0
 440 3 373 -23 300 -23 c 0
 177 -23 98 51 98 167 c 0
 98 191 101 218 107 255 c 2
 190 729 l 1
 313 729 l 1
 227 235 l 2
 224 218 222 201 222 190 c 0
 222 136 259 105 323 105 c 0
 398 105 439 145 455 235 c 2
 541 729 l 1
EndSplineSet
EndChar

StartChar: Uacute
Encoding: 218 218 55
Width: 592
Flags: MW
HStem: -23 128<291 336.5>
VStem: 98 124<163 179>
LayerCount: 2
Fore
SplineSet
568 936 m 1
 438 786 l 1
 381 786 l 1
 464 936 l 1
 568 936 l 1
541 729 m 1
 664 729 l 1
 578 235 l 2
 563 152 536 96 490 51 c 0
 440 3 373 -23 300 -23 c 0
 177 -23 98 51 98 167 c 0
 98 191 101 218 107 255 c 2
 190 729 l 1
 313 729 l 1
 227 235 l 2
 224 218 222 201 222 190 c 0
 222 136 259 105 323 105 c 0
 398 105 439 145 455 235 c 2
 541 729 l 1
EndSplineSet
EndChar

StartChar: Ugrave
Encoding: 217 217 56
Width: 592
Flags: MW
HStem: -23 128<291 336.5> 786 150<436 451 353 487 436 436>
VStem: 98 124<163 179>
LayerCount: 2
Fore
SplineSet
353 936 m 1
 451 936 l 1
 487 786 l 1
 436 786 l 1
 353 936 l 1
541 729 m 1
 664 729 l 1
 578 235 l 2
 563 152 536 96 490 51 c 0
 440 3 373 -23 300 -23 c 0
 177 -23 98 51 98 167 c 0
 98 191 101 218 107 255 c 2
 190 729 l 1
 313 729 l 1
 227 235 l 2
 224 218 222 201 222 190 c 0
 222 136 259 105 323 105 c 0
 398 105 439 145 455 235 c 2
 541 729 l 1
EndSplineSet
EndChar

StartChar: Ucircumflex
Encoding: 219 219 57
Width: 592
Flags: MW
HStem: -23 128<291 336.5>
VStem: 98 124<163 179>
LayerCount: 2
Fore
SplineSet
424 936 m 1
 512 936 l 1
 570 789 l 1
 506 789 l 1
 457 886 l 1
 372 789 l 1
 310 789 l 1
 424 936 l 1
541 729 m 1
 664 729 l 1
 578 235 l 2
 563 152 536 96 490 51 c 0
 440 3 373 -23 300 -23 c 0
 177 -23 98 51 98 167 c 0
 98 191 101 218 107 255 c 2
 190 729 l 1
 313 729 l 1
 227 235 l 2
 224 218 222 201 222 190 c 0
 222 136 259 105 323 105 c 0
 398 105 439 145 455 235 c 2
 541 729 l 1
EndSplineSet
EndChar

StartChar: Yacute
Encoding: 221 221 58
Width: 547
Flags: MW
HStem: 0 20 709 20<149 286 286 286 523 660 660 660>
LayerCount: 2
Fore
SplineSet
391 270 m 1
 344 0 l 1
 221 0 l 1
 268 270 l 1
 149 729 l 1
 286 729 l 1
 354 414 l 1
 523 729 l 1
 660 729 l 1
 391 270 l 1
548 936 m 1
 418 786 l 1
 361 786 l 1
 444 936 l 1
 548 936 l 1
EndSplineSet
EndChar

StartChar: Zcaron
Encoding: 381 381 59
Width: 501
Flags: MW
HStem: 0 125<47 47 191 474 25 47> 604 125<152 436 130 601 580 580>
LayerCount: 2
Fore
SplineSet
601 729 m 1
 580 604 l 1
 191 125 l 1
 496 125 l 1
 474 0 l 1
 25 0 l 1
 47 125 l 1
 436 604 l 1
 130 604 l 1
 152 729 l 1
 601 729 l 1
429 789 m 1
 341 789 l 1
 282 936 l 1
 346 936 l 1
 396 839 l 1
 481 936 l 1
 543 936 l 1
 429 789 l 1
EndSplineSet
EndChar

StartChar: Thorn
Encoding: 222 222 60
Width: 547
Flags: MW
HStem: 0 20 140 125<209 357 231 357 357 363> 484 125<291 395 269 421> 709 20<189 312 312 312>
VStem: 469 122<400.5 428.5>
LayerCount: 2
Fore
SplineSet
209 140 m 1
 185 0 l 1
 62 0 l 1
 189 729 l 1
 312 729 l 1
 291 609 l 1
 421 609 l 2
 475 609 509 598 539 570 c 0
 572 539 591 492 591 440 c 0
 591 361 561 274 515 216 c 0
 471 162 426 140 363 140 c 2
 209 140 l 1
231 265 m 1
 357 265 l 2
 401 265 430 282 450 319 c 0
 460 339 469 379 469 405 c 0
 469 452 439 484 395 484 c 2
 269 484 l 1
 231 265 l 1
EndSplineSet
EndChar

StartChar: Ydieresis
Encoding: 376 376 61
Width: 547
Flags: MW
HStem: 0 20 709 20<149 286 286 286 523 660 660 660> 800 120<315 385 294 406 315 447 468 537>
LayerCount: 2
Fore
SplineSet
391 270 m 1
 344 0 l 1
 221 0 l 1
 268 270 l 1
 149 729 l 1
 286 729 l 1
 354 414 l 1
 523 729 l 1
 660 729 l 1
 391 270 l 1
406 920 m 1
 385 800 l 1
 294 800 l 1
 315 920 l 1
 406 920 l 1
558 920 m 1
 537 800 l 1
 447 800 l 1
 468 920 l 1
 558 920 l 1
EndSplineSet
EndChar

StartChar: a
Encoding: 97 97 62
Width: 456
Flags: W
HStem: -23 112<127 246> 437 112<271.5 318.5>
VStem: 41 117<123 138> 298 117<21.5 65> 358 116<384 443>
LayerCount: 2
Fore
SplineSet
432 17 m 1xd0
 429 0 l 1
 304 0 l 1
 300 10 298 17 298 26 c 0xf0
 298 37 298 41 300 54 c 1
 251 -1 211 -23 164 -23 c 0
 90 -23 41 29 41 108 c 0
 41 168 68 229 111 267 c 0
 137 289 167 303 207 311 c 2
 254 320 l 1
 314 330 314 330 330 341 c 0
 346 352 358 374 358 394 c 0
 358 424 339 437 298 437 c 0
 245 437 220 417 206 362 c 1
 98 362 l 1
 121 492 188 549 315 549 c 0
 375 549 415 537 441 511 c 0
 460 492 474 457 474 429 c 0xe8
 474 416 472 401 469 383 c 2
 417 83 l 2
 416 75 415 68 415 62 c 0
 415 47 420 34 432 17 c 1xd0
328 217 m 1
 334 255 l 1
 325 248 322 247 312 244 c 0
 303 242 294 240 283 238 c 2
 242 230 l 2
 188 219 158 186 158 139 c 0
 158 107 179 89 218 89 c 0
 274 89 313 135 328 217 c 1
EndSplineSet
EndChar

StartChar: b
Encoding: 98 98 63
Width: 501
Flags: MW
HStem: -23 112<253 310 253 344> 437 112<352.5 357.5> 709 20<175 290 290 290>
VStem: 407 117<257.5 355.5>
LayerCount: 2
Fore
SplineSet
175 729 m 1
 290 729 l 1
 245 470 l 1
 282 524 325 549 380 549 c 0
 468 549 524 469 524 343 c 0
 524 150 408 -23 280 -23 c 0
 225 -23 191 2 172 55 c 1
 163 0 l 1
 48 0 l 1
 175 729 l 1
335 437 m 0
 265 437 203 328 203 203 c 0
 203 134 231 89 275 89 c 0
 345 89 407 196 407 319 c 0
 407 392 380 437 335 437 c 0
EndSplineSet
EndChar

StartChar: c
Encoding: 99 99 64
Width: 456
Flags: MW
HStem: -23 112<228.5 275.5 228.5 292.5> 437 112<288 322.5>
VStem: 63 117<157.5 217 157.5 221>
LayerCount: 2
Fore
SplineSet
486 338 m 1
 376 338 l 1
 376 378 374 391 366 406 c 0
 355 426 336 437 309 437 c 0
 263 437 232 410 208 347 c 0
 191 300 180 242 180 192 c 0
 180 123 204 89 253 89 c 0
 298 89 325 116 350 187 c 1
 460 187 l 1
 425 52 345 -23 240 -23 c 0
 175 -23 129 -1 99 44 c 0
 76 78 63 125 63 172 c 0
 63 270 99 391 150 460 c 1
 193 520 251 549 325 549 c 0
 381 549 419 533 450 494 c 0
 475 463 489 424 489 381 c 0
 489 367 488 359 486 338 c 1
EndSplineSet
EndChar

StartChar: d
Encoding: 100 100 65
Width: 501
Flags: MW
HStem: -23 112<231.5 234.5> 437 112<278.5 334.5> 709 20<459 574 574 574>
VStem: 65 117<170 227.5>
LayerCount: 2
Fore
SplineSet
332 0 m 1
 342 55 l 1
 304 2 262 -23 207 -23 c 0
 120 -23 65 58 65 185 c 0
 65 270 90 362 132 433 c 0
 176 507 240 549 308 549 c 0
 361 549 395 524 414 470 c 1
 459 729 l 1
 574 729 l 1
 447 0 l 1
 332 0 l 1
313 437 m 0
 244 437 182 327 182 206 c 0
 182 134 210 89 253 89 c 0
 323 89 384 197 384 322 c 0
 384 392 356 437 313 437 c 0
EndSplineSet
EndChar

StartChar: e
Encoding: 101 101 66
Width: 456
Flags: MW
HStem: -23 112<224.5 268 224.5 275> 226 93<188 368 188 471 172 368> 437 112<279 319>
VStem: 53 117<154 184 154 234.5> 368 117<319 372 331 346 346 346>
LayerCount: 2
Fore
SplineSet
471 226 m 1
 172 226 l 1
 171 206 l 2
 170 196 170 186 170 182 c 0
 170 126 201 89 248 89 c 0
 288 89 324 114 340 152 c 1
 453 152 l 1
 409 41 325 -23 225 -23 c 0
 123 -23 53 61 53 184 c 0
 53 285 89 400 143 470 c 0
 181 518 247 549 311 549 c 0
 375 549 422 524 452 474 c 0
 473 440 485 394 485 350 c 0
 485 312 480 272 471 226 c 1
368 319 m 1
 368 330 l 1
 368 346 l 1
 369 400 341 437 297 437 c 0
 242 437 205 397 188 319 c 1
 368 319 l 1
EndSplineSet
EndChar

StartChar: f
Encoding: 102 102 67
Width: 273
Flags: MW
HStem: 0 20 436 93<104 150 87 166 281 332> 625 104<317.5 326.5 277.5 332.5>
LayerCount: 2
Fore
SplineSet
349 529 m 1
 332 436 l 1
 265 436 l 1
 189 0 l 1
 74 0 l 1
 150 436 l 1
 87 436 l 1
 104 529 l 1
 166 529 l 1
 178 594 l 1
 194 687 237 729 318 729 c 0
 335 729 341 729 381 726 c 1
 362 621 l 1
 342 624 337 625 328 625 c 0
 307 625 295 611 290 582 c 2
 281 529 l 1
 349 529 l 1
EndSplineSet
EndChar

StartChar: g
Encoding: 103 103 68
Width: 501
Flags: W
HStem: -218 90<191 241 191 260> -23 112<229.5 233.5> 437 112<292 333.5>
VStem: 21 120<-116 -75.5> 64 117<166.5 216.5>
LayerCount: 2
Fore
SplineSet
428 540 m 1xe8
 538 540 l 1
 440 -18 l 2
 418 -146 329 -218 191 -218 c 0
 141 -218 105 -210 76 -192 c 0
 42 -172 21 -135 21 -97 c 0
 21 -89 22 -77 23 -65 c 1
 142 -65 l 1
 141 -70 141 -74 141 -77 c 0xf0
 141 -107 171 -128 211 -128 c 0
 271 -128 320 -84 331 -18 c 2
 344 55 l 1
 291 -5 259 -23 208 -23 c 0
 125 -23 64 57 64 168 c 0
 64 265 98 383 147 452 c 0
 191 514 249 549 310 549 c 0
 358 549 391 519 414 457 c 1
 428 540 l 1xe8
311 437 m 0xe8
 273 437 239 407 214 350 c 1
 194 307 181 247 181 201 c 0
 181 132 208 89 251 89 c 0
 323 89 386 194 386 315 c 0
 386 389 356 437 311 437 c 0xe8
EndSplineSet
EndChar

StartChar: h
Encoding: 104 104 69
Width: 501
Flags: MW
HStem: 0 20 437 112<306.5 432.5> 709 20<182 297 297 297>
VStem: 393 123<354 457>
LayerCount: 2
Fore
SplineSet
182 729 m 1
 297 729 l 1
 250 458 l 1
 294 521 338 549 397 549 c 0
 468 549 516 496 516 418 c 0
 516 400 514 381 511 362 c 2
 448 0 l 1
 333 0 l 1
 388 313 l 2
 392 337 393 348 393 360 c 0
 393 410 372 437 333 437 c 0
 280 437 237 385 223 304 c 2
 170 0 l 1
 55 0 l 1
 182 729 l 1
EndSplineSet
EndChar

StartChar: i
Encoding: 105 105 70
Width: 228
Flags: MW
HStem: 0 20 604 125<182 275 160 297>
LayerCount: 2
Fore
SplineSet
264 540 m 1
 170 0 l 1
 55 0 l 1
 149 540 l 1
 264 540 l 1
297 729 m 1
 275 604 l 1
 160 604 l 1
 182 729 l 1
 297 729 l 1
EndSplineSet
EndChar

StartChar: j
Encoding: 106 106 71
Width: 228
Flags: MW
HStem: -218 112<-1 17.5 -1 48.5> 604 125<185 278 163 300>
LayerCount: 2
Fore
SplineSet
300 729 m 1
 278 604 l 1
 163 604 l 1
 185 729 l 1
 300 729 l 1
267 540 m 1
 156 -94 l 2
 141 -181 95 -218 2 -218 c 0
 -13 -218 -24 -217 -35 -213 c 1
 -16 -102 l 1
 -12 -105 -7 -106 5 -106 c 0
 30 -106 42 -94 47 -62 c 2
 152 540 l 1
 267 540 l 1
EndSplineSet
EndChar

StartChar: k
Encoding: 107 107 72
Width: 456
Flags: MW
HStem: 0 20 709 20<175 290 290 290>
LayerCount: 2
Fore
SplineSet
290 729 m 1
 220 330 l 1
 403 540 l 1
 533 540 l 1
 344 334 l 1
 449 0 l 1
 314 0 l 1
 250 239 l 1
 194 177 l 1
 163 0 l 1
 48 0 l 1
 175 729 l 1
 290 729 l 1
EndSplineSet
EndChar

StartChar: l
Encoding: 108 108 73
Width: 228
Flags: MW
HStem: 0 20 709 20<182 297 297 297>
LayerCount: 2
Fore
SplineSet
297 729 m 1
 170 0 l 1
 55 0 l 1
 182 729 l 1
 297 729 l 1
EndSplineSet
EndChar

StartChar: m
Encoding: 109 109 74
Width: 729
Flags: W
HStem: 0 20 437 112<294 409.5> 520 20<143 257 257 257>
VStem: 626 121<376 463>
LayerCount: 2
Fore
SplineSet
143 540 m 1xb0
 257 540 l 1x30
 243 459 l 1
 292 525 330 549 384 549 c 0
 435 549 474 518 486 467 c 1
 530 524 575 549 630 549 c 0
 704 549 747 503 747 423 c 0
 747 406 745 392 740 362 c 2
 677 0 l 1
 562 0 l 1
 622 340 l 2
 624 356 626 371 626 381 c 0
 626 417 609 437 578 437 c 0
 526 437 489 396 477 324 c 2
 420 0 l 1
 306 0 l 1
 366 346 l 2
 368 357 369 369 369 379 c 0
 369 415 349 437 318 437 c 0xd0
 270 437 232 394 220 324 c 2
 164 0 l 1
 49 0 l 1
 143 540 l 1xb0
EndSplineSet
EndChar

StartChar: n
Encoding: 110 110 75
Width: 501
Flags: W
HStem: 0 20 437 112<305 432.5> 520 20<146 261 261 261>
VStem: 393 123<354.5 457.5>
LayerCount: 2
Fore
SplineSet
146 540 m 1xb0
 261 540 l 1x30
 247 458 l 1
 291 522 335 549 396 549 c 0
 469 549 516 497 516 418 c 0
 516 399 514 381 511 362 c 2
 448 0 l 1
 333 0 l 1
 388 313 l 2
 392 336 393 347 393 362 c 0
 393 411 372 437 333 437 c 0xd0
 277 437 234 387 220 304 c 2
 167 0 l 1
 52 0 l 1
 146 540 l 1xb0
EndSplineSet
EndChar

StartChar: o
Encoding: 111 111 76
Width: 501
Flags: MW
HStem: -23 112<241 287.5 241 289> 437 112<299 345.5>
VStem: 67 117<170 221.5> 403 117<305.5 355.5>
LayerCount: 2
Fore
SplineSet
338 549 m 0
 451 549 520 473 520 350 c 0
 520 261 492 158 451 94 c 0
 401 16 332 -23 246 -23 c 0
 137 -23 67 54 67 176 c 0
 67 267 94 367 135 432 c 0
 184 508 255 549 338 549 c 0
321 437 m 0
 277 437 239 405 213 346 c 0
 195 305 184 251 184 205 c 0
 184 135 216 89 266 89 c 0
 309 89 348 122 374 180 c 0
 391 220 403 276 403 320 c 0
 403 391 370 437 321 437 c 0
EndSplineSet
EndChar

StartChar: p
Encoding: 112 112 77
Width: 501
Flags: MW
HStem: -218 20 -23 112<253 308.5 251 348.5> 437 112<352.5 355>
VStem: 405 117<258.5 356.5>
LayerCount: 2
Fore
SplineSet
256 540 m 1
 242 460 l 1
 280 520 325 549 380 549 c 0
 467 549 522 470 522 342 c 0
 522 140 415 -23 282 -23 c 0
 224 -23 190 4 173 64 c 1
 124 -218 l 1
 9 -218 l 1
 141 540 l 1
 256 540 l 1
333 437 m 0
 263 437 202 329 202 203 c 0
 202 132 229 89 273 89 c 0
 344 89 405 196 405 321 c 0
 405 392 377 437 333 437 c 0
EndSplineSet
EndChar

StartChar: q
Encoding: 113 113 78
Width: 501
Flags: MW
HStem: -218 20 -23 112<226.5 232> 437 112<274.5 332>
VStem: 59 117<168.5 224.5>
LayerCount: 2
Fore
SplineSet
426 540 m 1
 540 540 l 1
 408 -218 l 1
 293 -218 l 1
 343 64 l 1
 305 5 260 -23 204 -23 c 0
 116 -23 59 56 59 180 c 0
 59 269 85 364 128 435 c 0
 173 508 236 549 305 549 c 0
 359 549 395 519 412 460 c 1
 426 540 l 1
310 437 m 0
 239 437 176 327 176 204 c 0
 176 133 204 89 249 89 c 0
 321 89 382 196 382 322 c 0
 382 392 354 437 310 437 c 0
EndSplineSet
EndChar

StartChar: r
Encoding: 114 114 79
Width: 319
Flags: W
HStem: 0 20 410 139<306 388> 520 20<146 261 261 261>
LayerCount: 2
Fore
SplineSet
146 540 m 1xa0
 261 540 l 1x20
 243 434 l 1
 280 507 333 549 386 549 c 0
 390 549 393 549 400 548 c 1
 375 406 l 1
 361 409 353 410 340 410 c 0x40
 272 410 231 369 217 287 c 2
 167 0 l 1
 52 0 l 1
 146 540 l 1xa0
EndSplineSet
EndChar

StartChar: s
Encoding: 115 115 80
Width: 456
Flags: W
HStem: -23 112<223.5 276.5 223.5 300> 437 112<285.5 320.5>
VStem: 104 122<316.5 400.5> 337 121<128 155.5> 371 112<399 401>
LayerCount: 2
Fore
SplineSet
479 366 m 1xe8
 368 366 l 1
 370 378 371 382 371 385 c 0xc8
 371 417 343 437 298 437 c 0
 255 437 226 416 226 385 c 0
 226 364 237 354 280 339 c 2
 358 311 l 2
 426 286 458 247 458 188 c 0
 458 58 370 -23 230 -23 c 0
 179 -23 139 -12 109 10 c 0
 72 36 49 82 49 127 c 0
 49 136 50 143 52 157 c 1
 165 157 l 1
 167 112 196 89 251 89 c 0
 302 89 337 112 337 144 c 0xf0
 337 167 326 176 274 196 c 2
 210 221 l 2
 137 250 104 288 104 345 c 0
 104 398 128 456 166 494 c 0
 201 530 254 549 317 549 c 0
 421 549 483 494 483 404 c 0
 483 394 482 384 479 366 c 1xe8
EndSplineSet
EndChar

StartChar: t
Encoding: 116 116 81
Width: 273
Flags: MW
HStem: -23 20 436 93<104 145 88 161 276 323>
VStem: 83 121<35 111>
LayerCount: 2
Fore
SplineSet
340 529 m 1
 323 436 l 1
 259 436 l 1
 208 142 l 2
 206 127 204 114 204 108 c 0
 204 92 215 83 235 83 c 0
 244 83 250 84 262 86 c 1
 245 -12 l 1
 222 -20 203 -23 176 -23 c 0
 116 -23 83 7 83 63 c 0
 83 76 84 90 87 104 c 2
 145 436 l 1
 88 436 l 1
 104 529 l 1
 161 529 l 1
 186 674 l 1
 301 674 l 1
 276 529 l 1
 340 529 l 1
EndSplineSet
EndChar

StartChar: u
Encoding: 117 117 82
Width: 501
Flags: MW
HStem: -23 112<155.5 283.5> 520 20<142 257 257 257 423 538 538 538>
VStem: 72 123<69 171.5>
LayerCount: 2
Fore
SplineSet
444 0 m 1
 329 0 l 1
 341 68 l 1
 296 4 252 -23 192 -23 c 0
 119 -23 72 29 72 109 c 0
 72 127 74 145 77 164 c 2
 142 540 l 1
 257 540 l 1
 200 213 l 2
 196 190 195 179 195 164 c 0
 195 114 216 89 257 89 c 0
 310 89 353 141 367 222 c 2
 423 540 l 1
 538 540 l 1
 444 0 l 1
EndSplineSet
EndChar

StartChar: v
Encoding: 118 118 83
Width: 456
Flags: MW
HStem: 0 20 520 20<106 228 228 228 413 534 534 534>
LayerCount: 2
Fore
SplineSet
287 0 m 1
 167 0 l 1
 106 540 l 1
 228 540 l 1
 252 145 l 1
 413 540 l 1
 534 540 l 1
 287 0 l 1
EndSplineSet
EndChar

StartChar: w
Encoding: 119 119 84
Width: 638
Flags: MW
HStem: 0 20 520 20<98 217 217 217 352 470 470 470 604 722 722 722>
LayerCount: 2
Fore
SplineSet
506 0 m 1
 387 0 l 1
 383 380 l 1
 247 0 l 1
 129 0 l 1
 98 540 l 1
 217 540 l 1
 221 162 l 1
 352 540 l 1
 470 540 l 1
 470 162 l 1
 604 540 l 1
 722 540 l 1
 506 0 l 1
EndSplineSet
EndChar

StartChar: x
Encoding: 120 120 85
Width: 456
Flags: MW
HStem: 0 20 520 20<113 251 251 251 393 531 531 531>
LayerCount: 2
Fore
SplineSet
337 274 m 1
 438 0 l 1
 300 0 l 1
 252 168 l 1
 151 0 l 1
 13 0 l 1
 204 274 l 1
 113 540 l 1
 251 540 l 1
 293 377 l 1
 393 540 l 1
 531 540 l 1
 337 274 l 1
EndSplineSet
EndChar

StartChar: y
Encoding: 121 121 86
Width: 456
Flags: MW
HStem: -219 20 520 20<101 228 228 228 417 535 535 535>
LayerCount: 2
Fore
SplineSet
417 540 m 1
 535 540 l 1
 241 -98 l 2
 211 -164 193 -187 156 -203 c 0
 131 -214 102 -219 67 -219 c 0
 49 -219 41 -218 30 -215 c 1
 49 -106 l 1
 57 -108 63 -108 78 -108 c 0
 128 -108 164 -69 164 -16 c 0
 164 -9 164 -5 163 0 c 2
 101 540 l 1
 228 540 l 1
 257 147 l 1
 417 540 l 1
EndSplineSet
EndChar

StartChar: z
Encoding: 122 122 87
Width: 410
Flags: MW
HStem: 0 113<37 37 179 384 17 37> 427 113<126 311 106 471 452 452>
LayerCount: 2
Fore
SplineSet
471 540 m 1
 452 427 l 1
 179 113 l 1
 404 113 l 1
 384 0 l 1
 17 0 l 1
 37 113 l 1
 311 427 l 1
 106 427 l 1
 126 540 l 1
 471 540 l 1
EndSplineSet
EndChar

StartChar: ae
Encoding: 230 230 88
Width: 729
Flags: MW
HStem: -23 112<200.5 209.5 497.5 541.5> 226 93<466 642 466 745 448 642> 437 112<284.5 321.5 564 587>
VStem: 44 117<123 159> 643 117<332 343 343 343>
LayerCount: 2
Fore
SplineSet
614 152 m 1
 728 152 l 1
 684 45 595 -23 496 -23 c 0
 424 -23 371 13 348 77 c 1
 292 3 247 -23 172 -23 c 0
 91 -23 44 25 44 107 c 0
 44 211 109 291 210 311 c 2
 257 320 l 1
 317 330 317 330 333 341 c 0
 349 351 361 373 361 394 c 0
 361 423 342 437 301 437 c 0
 248 437 223 417 209 362 c 1
 101 362 l 1
 112 428 127 463 156 492 c 0
 193 530 249 549 320 549 c 0
 385 549 426 534 453 500 c 1
 491 532 539 549 589 549 c 0
 650 549 696 524 726 474 c 0
 748 439 760 394 760 350 c 0
 760 314 755 271 745 226 c 1
 448 226 l 1
 444 203 443 193 443 175 c 0
 443 123 474 89 521 89 c 0
 562 89 598 114 614 152 c 1
331 216 m 1
 337 254 l 1
 328 248 325 247 315 244 c 1
 306 243 295 240 286 238 c 2
 245 230 l 2
 191 219 161 186 161 139 c 0
 161 107 182 89 219 89 c 0
 277 89 316 134 331 216 c 1
642 319 m 1
 643 331 l 1
 643 343 l 1
 641 369 639 387 635 395 c 0
 623 422 601 437 573 437 c 0
 520 437 483 396 466 319 c 1
 642 319 l 1
EndSplineSet
EndChar

StartChar: oe
Encoding: 339 339 89
Width: 774
Flags: MW
HStem: -23 112<232 269 546 590> 226 93<514 691 514 794 497 691> 437 112<290 337 607 643>
VStem: 58 117<169.5 221.5> 691 117<330 350 350 377>
LayerCount: 2
Fore
SplineSet
663 152 m 1
 776 152 l 1
 733 45 643 -23 546 -23 c 0
 485 -23 432 5 408 50 c 1
 366 4 302 -23 236 -23 c 0
 126 -23 58 53 58 176 c 0
 58 267 85 366 127 432 c 1
 177 508 248 549 330 549 c 0
 396 549 450 523 478 477 c 1
 516 522 576 549 638 549 c 0
 739 549 808 468 808 350 c 0
 808 310 804 276 794 226 c 1
 497 226 l 1
 492 201 491 190 491 175 c 0
 491 123 522 89 570 89 c 0
 610 89 647 114 663 152 c 1
312 437 m 0
 268 437 230 405 204 346 c 0
 186 305 175 251 175 205 c 0
 175 134 207 89 257 89 c 0
 332 89 393 193 393 320 c 0
 393 392 362 437 312 437 c 0
691 319 m 1
 691 350 l 2
 691 404 665 437 621 437 c 0
 568 437 532 397 514 319 c 1
 691 319 l 1
EndSplineSet
EndChar

StartChar: oslash
Encoding: 248 248 90
Width: 501
Flags: W
HStem: -23 112<254.5 291> 437 112<301 338> 537 20<553 553>
VStem: 69 117<206.5 223.5> 405 117<321 336 336 336>
LayerCount: 2
Fore
SplineSet
111 36 m 1xb8
 38 -38 l 1
 10 2 l 1
 87 80 l 1
 74 112 69 143 69 181 c 0
 69 266 97 368 138 432 c 0
 188 508 259 549 342 549 c 0xd8
 403 549 452 527 484 486 c 1
 553 557 l 1
 582 516 l 1
 507 440 l 1
 517 412 522 378 522 344 c 0
 522 260 493 157 453 94 c 1
 403 18 332 -23 250 -23 c 0
 191 -23 144 -2 111 36 c 1xb8
405 336 m 1
 202 129 l 1
 216 104 241 89 268 89 c 0
 317 89 360 131 385 203 c 0
 398 241 405 283 405 321 c 2
 405 336 l 1
187 183 m 1
 392 392 l 1
 378 421 353 437 323 437 c 0
 279 437 241 405 215 345 c 0
 198 306 186 250 186 209 c 0
 186 204 186 199 187 183 c 1
EndSplineSet
EndChar

StartChar: germandbls
Encoding: 223 223 91
Width: 501
Flags: W
HStem: -23 20 617 112<323.5 369.5>
VStem: 400 117<249.5 283.5> 419 117<542 572.5>
LayerCount: 2
Fore
SplineSet
295 349 m 1xe0
 311 444 l 1
 376 444 419 487 419 552 c 0
 419 593 392 617 347 617 c 0
 300 617 273 591 263 537 c 2
 170 0 l 1
 55 0 l 1
 152 558 l 2
 170 662 255 729 371 729 c 0
 471 729 536 671 536 581 c 0xd0
 536 503 497 437 436 412 c 1
 487 397 517 347 517 277 c 0
 517 222 497 148 468 98 c 0
 423 20 359 -23 287 -23 c 0
 270 -23 257 -21 231 -16 c 1
 250 96 l 1
 261 96 l 1
 278 96 l 2
 343 96 400 169 400 251 c 0
 400 316 368 349 306 349 c 2
 295 349 l 1xe0
EndSplineSet
EndChar

StartChar: dotlessi
Encoding: 305 305 92
Width: 228
Flags: MW
HStem: 0 20 520 20<149 264 264 264>
LayerCount: 2
Fore
SplineSet
264 540 m 1
 170 0 l 1
 55 0 l 1
 149 540 l 1
 264 540 l 1
EndSplineSet
EndChar

StartChar: fi
Encoding: 64257 64257 93
Width: 501
Flags: W
HStem: 0 20 436 93<100 146 83 162 277 328> 604 125<462 555 273.5 440> 625 104<313.5 322.5 273.5 328.5>
LayerCount: 2
Fore
SplineSet
544 540 m 1xe0
 450 0 l 1
 335 0 l 1
 429 540 l 1
 544 540 l 1xe0
577 729 m 1
 555 604 l 1
 440 604 l 1
 462 729 l 1
 577 729 l 1
345 529 m 1
 328 436 l 1
 261 436 l 1
 185 0 l 1
 70 0 l 1
 146 436 l 1
 83 436 l 1
 100 529 l 1
 162 529 l 1
 174 594 l 1
 190 687 233 729 314 729 c 0
 331 729 337 729 377 726 c 1
 358 621 l 1
 338 624 333 625 324 625 c 0xd0
 303 625 291 611 286 582 c 2
 277 529 l 1
 345 529 l 1
EndSplineSet
EndChar

StartChar: fl
Encoding: 64258 64258 94
Width: 501
Flags: W
HStem: 0 20 436 93<102 148 85 164 279 330> 625 104<315.5 324.5 275.5 330.5> 709 20<275.5 324.5 460 575 575 575>
LayerCount: 2
Fore
SplineSet
575 729 m 1xd0
 448 0 l 1
 333 0 l 1
 460 729 l 1
 575 729 l 1xd0
347 529 m 1
 330 436 l 1
 263 436 l 1
 187 0 l 1
 72 0 l 1
 148 436 l 1
 85 436 l 1
 102 529 l 1
 164 529 l 1
 176 594 l 1
 192 687 235 729 316 729 c 0
 333 729 339 729 379 726 c 1
 360 621 l 1
 340 624 335 625 326 625 c 0xe0
 305 625 293 611 288 582 c 2
 279 529 l 1
 347 529 l 1
EndSplineSet
EndChar

StartChar: adieresis
Encoding: 228 228 95
Width: 456
Flags: W
HStem: -23 112<127 246> 437 112<271.5 318.5> 621 120<234 303 212 324 234 365 386 455>
VStem: 41 117<123 138> 298 117<21.5 65> 358 116<384 443>
LayerCount: 2
Fore
SplineSet
324 741 m 1xe8
 303 621 l 1
 212 621 l 1
 234 741 l 1
 324 741 l 1xe8
476 741 m 1
 455 621 l 1
 365 621 l 1
 386 741 l 1
 476 741 l 1
432 17 m 1
 429 0 l 1
 304 0 l 1
 300 10 298 17 298 26 c 0xf8
 298 37 298 41 300 54 c 1
 251 -1 211 -23 164 -23 c 0
 90 -23 41 29 41 108 c 0
 41 168 68 229 111 267 c 0
 137 289 167 303 207 311 c 2
 254 320 l 1
 314 330 314 330 330 341 c 0
 346 352 358 374 358 394 c 0
 358 424 339 437 298 437 c 0
 245 437 220 417 206 362 c 1
 98 362 l 1
 121 492 188 549 315 549 c 0
 375 549 415 537 441 511 c 0
 460 492 474 457 474 429 c 0xf4
 474 416 472 401 469 383 c 2
 417 83 l 2
 416 75 415 68 415 62 c 0
 415 47 420 34 432 17 c 1
328 217 m 1
 334 255 l 1
 325 248 322 247 312 244 c 0
 303 242 294 240 283 238 c 2
 242 230 l 2
 188 219 158 186 158 139 c 0
 158 107 179 89 218 89 c 0
 274 89 313 135 328 217 c 1
EndSplineSet
EndChar

StartChar: aacute
Encoding: 225 225 96
Width: 456
Flags: W
HStem: -23 112<127 246> 437 112<271.5 318.5>
VStem: 41 117<123 138> 298 117<21.5 65> 358 116<384 443>
LayerCount: 2
Fore
SplineSet
481 757 m 1xd0
 352 607 l 1
 294 607 l 1
 378 757 l 1
 481 757 l 1xd0
432 17 m 1
 429 0 l 1
 304 0 l 1
 300 10 298 17 298 26 c 0xf0
 298 37 298 41 300 54 c 1
 251 -1 211 -23 164 -23 c 0
 90 -23 41 29 41 108 c 0
 41 168 68 229 111 267 c 0
 137 289 167 303 207 311 c 2
 254 320 l 1
 314 330 314 330 330 341 c 0
 346 352 358 374 358 394 c 0
 358 424 339 437 298 437 c 0
 245 437 220 417 206 362 c 1
 98 362 l 1
 121 492 188 549 315 549 c 0
 375 549 415 537 441 511 c 0
 460 492 474 457 474 429 c 0xe8
 474 416 472 401 469 383 c 2
 417 83 l 2
 416 75 415 68 415 62 c 0
 415 47 420 34 432 17 c 1
328 217 m 1
 334 255 l 1
 325 248 322 247 312 244 c 0
 303 242 294 240 283 238 c 2
 242 230 l 2
 188 219 158 186 158 139 c 0
 158 107 179 89 218 89 c 0
 274 89 313 135 328 217 c 1
EndSplineSet
EndChar

StartChar: agrave
Encoding: 224 224 97
Width: 456
Flags: W
HStem: -23 112<127 246> 437 112<271.5 318.5> 607 150<331 346 249 383 331 331>
VStem: 41 117<123 138> 298 117<21.5 65> 358 116<384 443>
LayerCount: 2
Fore
SplineSet
249 757 m 1xe8
 346 757 l 1
 383 607 l 1
 331 607 l 1
 249 757 l 1xe8
432 17 m 1
 429 0 l 1
 304 0 l 1
 300 10 298 17 298 26 c 0xf8
 298 37 298 41 300 54 c 1
 251 -1 211 -23 164 -23 c 0
 90 -23 41 29 41 108 c 0
 41 168 68 229 111 267 c 0
 137 289 167 303 207 311 c 2
 254 320 l 1
 314 330 314 330 330 341 c 0
 346 352 358 374 358 394 c 0
 358 424 339 437 298 437 c 0
 245 437 220 417 206 362 c 1
 98 362 l 1
 121 492 188 549 315 549 c 0
 375 549 415 537 441 511 c 0
 460 492 474 457 474 429 c 0xf4
 474 416 472 401 469 383 c 2
 417 83 l 2
 416 75 415 68 415 62 c 0
 415 47 420 34 432 17 c 1
328 217 m 1
 334 255 l 1
 325 248 322 247 312 244 c 0
 303 242 294 240 283 238 c 2
 242 230 l 2
 188 219 158 186 158 139 c 0
 158 107 179 89 218 89 c 0
 274 89 313 135 328 217 c 1
EndSplineSet
EndChar

StartChar: acircumflex
Encoding: 226 226 98
Width: 456
Flags: W
HStem: -23 112<127 246> 437 112<271.5 318.5>
VStem: 41 117<123 138> 298 117<21.5 65> 358 116<384 443>
LayerCount: 2
Fore
SplineSet
317 757 m 1xd0
 405 757 l 1
 463 610 l 1
 399 610 l 1
 350 707 l 1
 265 610 l 1
 203 610 l 1
 317 757 l 1xd0
432 17 m 1
 429 0 l 1
 304 0 l 1
 300 10 298 17 298 26 c 0xf0
 298 37 298 41 300 54 c 1
 251 -1 211 -23 164 -23 c 0
 90 -23 41 29 41 108 c 0
 41 168 68 229 111 267 c 0
 137 289 167 303 207 311 c 2
 254 320 l 1
 314 330 314 330 330 341 c 0
 346 352 358 374 358 394 c 0
 358 424 339 437 298 437 c 0
 245 437 220 417 206 362 c 1
 98 362 l 1
 121 492 188 549 315 549 c 0
 375 549 415 537 441 511 c 0
 460 492 474 457 474 429 c 0xe8
 474 416 472 401 469 383 c 2
 417 83 l 2
 416 75 415 68 415 62 c 0
 415 47 420 34 432 17 c 1
328 217 m 1
 334 255 l 1
 325 248 322 247 312 244 c 0
 303 242 294 240 283 238 c 2
 242 230 l 2
 188 219 158 186 158 139 c 0
 158 107 179 89 218 89 c 0
 274 89 313 135 328 217 c 1
EndSplineSet
EndChar

StartChar: atilde
Encoding: 227 227 99
Width: 456
Flags: W
HStem: -23 112<127 246> 437 112<271.5 318.5> 622 71<385.5 422.5> 671 70<266 278.5> 724 20
VStem: 41 117<123 138> 298 117<21.5 65> 358 116<384 443>
LayerCount: 2
Fore
SplineSet
432 17 m 1xea
 429 0 l 1
 304 0 l 1
 300 10 298 17 298 26 c 0xee
 298 37 298 41 300 54 c 1
 251 -1 211 -23 164 -23 c 0
 90 -23 41 29 41 108 c 0
 41 168 68 229 111 267 c 0
 137 289 167 303 207 311 c 2
 254 320 l 1
 314 330 314 330 330 341 c 0
 346 352 358 374 358 394 c 0
 358 424 339 437 298 437 c 0
 245 437 220 417 206 362 c 1
 98 362 l 1
 121 492 188 549 315 549 c 0
 375 549 415 537 441 511 c 0
 460 492 474 457 474 429 c 0xed
 474 416 472 401 469 383 c 2
 417 83 l 2
 416 75 415 68 415 62 c 0
 415 47 420 34 432 17 c 1xea
328 217 m 1
 334 255 l 1
 325 248 322 247 312 244 c 0
 303 242 294 240 283 238 c 2
 242 230 l 2
 188 219 158 186 158 139 c 0
 158 107 179 89 218 89 c 0
 274 89 313 135 328 217 c 1
457 744 m 1
 502 744 l 1
 492 702 483 681 466 661 c 0
 445 636 419 622 393 622 c 0x2e
 378 622 362 626 351 633 c 2
 310 658 l 2
 296 666 283 671 274 671 c 0
 258 671 246 658 232 624 c 1
 188 624 l 1
 207 700 242 741 287 741 c 0x16
 312 741 314 740 345 724 c 2
 386 703 l 1
 401 694 404 693 413 693 c 0
 432 693 445 709 457 744 c 1
EndSplineSet
EndChar

StartChar: aring
Encoding: 229 229 100
Width: 456
Flags: W
HStem: -23 112<127 246> 437 112<271.5 318.5> 593 50<329.5 349 329.5 352.5> 723 50<341 361.5>
VStem: 41 117<123 138> 270 40<666 689 666 694> 298 117<21.5 65> 358 116<384 443> 380 40<679.5 702.5>
LayerCount: 2
Fore
SplineSet
432 17 m 1xf2
 429 0 l 1
 304 0 l 1
 300 10 298 17 298 26 c 0xfa
 298 37 298 41 300 54 c 1
 251 -1 211 -23 164 -23 c 0
 90 -23 41 29 41 108 c 0
 41 168 68 229 111 267 c 0
 137 289 167 303 207 311 c 2
 254 320 l 1
 314 330 314 330 330 341 c 0
 346 352 358 374 358 394 c 0
 358 424 339 437 298 437 c 0
 245 437 220 417 206 362 c 1
 98 362 l 1
 121 492 188 549 315 549 c 0
 375 549 415 537 441 511 c 0
 460 492 474 457 474 429 c 0xf9
 474 416 472 401 469 383 c 2
 417 83 l 2
 416 75 415 68 415 62 c 0
 415 47 420 34 432 17 c 1xf2
328 217 m 1
 334 255 l 1
 325 248 322 247 312 244 c 0
 303 242 294 240 283 238 c 2
 242 230 l 2
 188 219 158 186 158 139 c 0
 158 107 179 89 218 89 c 0
 274 89 313 135 328 217 c 1
361 773 m 0xf480
 397 773 420 745 420 702 c 0
 420 645 376 593 329 593 c 0
 294 593 270 622 270 665 c 0
 270 723 312 773 361 773 c 0xf480
353 723 m 0
 329 723 310 702 310 676 c 0
 310 656 321 643 338 643 c 0
 360 643 380 666 380 693 c 0
 380 712 370 723 353 723 c 0
EndSplineSet
EndChar

StartChar: ccedilla
Encoding: 231 231 101
Width: 456
Flags: MW
HStem: -220 50<163.5 191 163.5 216> 437 112<288 322.5>
VStem: 63 117<157.5 217 157.5 221.5> 231 71<-138 -115.5>
LayerCount: 2
Fore
SplineSet
236 -23 m 1
 214 -62 l 1
 227 -58 237 -56 249 -56 c 0
 283 -56 302 -77 302 -114 c 0
 302 -178 253 -220 179 -220 c 0
 142 -220 116 -213 70 -192 c 1
 94 -140 l 1
 133 -163 152 -170 175 -170 c 0
 207 -170 231 -151 231 -125 c 0
 231 -106 216 -93 195 -93 c 0
 181 -93 171 -96 151 -106 c 1
 197 -19 l 1
 169 -12 153 -6 138 4 c 0
 93 33 63 101 63 173 c 0
 63 270 99 391 150 460 c 1
 193 520 251 549 325 549 c 0
 381 549 419 533 450 494 c 0
 475 463 489 424 489 381 c 0
 489 367 488 359 486 338 c 1
 376 338 l 1
 376 378 374 391 366 406 c 0
 355 426 336 437 309 437 c 0
 263 437 232 410 208 347 c 0
 191 300 180 242 180 192 c 0
 180 123 204 89 253 89 c 0
 298 89 325 116 350 187 c 1
 460 187 l 1
 428 55 341 -26 236 -23 c 1
EndSplineSet
EndChar

StartChar: edieresis
Encoding: 235 235 102
Width: 456
Flags: MW
HStem: -23 112<224.5 268 224.5 275> 226 93<188 368 188 471 172 368> 437 112<279 319> 621 120<232 301 211 322 232 363 384 454>
VStem: 53 117<154 184 154 234.5> 368 117<319 371.5 330.5 346 346 346>
LayerCount: 2
Fore
SplineSet
322 741 m 1
 301 621 l 1
 211 621 l 1
 232 741 l 1
 322 741 l 1
475 741 m 1
 454 621 l 1
 363 621 l 1
 384 741 l 1
 475 741 l 1
471 226 m 1
 172 226 l 1
 171 206 l 2
 170 196 170 186 170 182 c 0
 170 126 201 89 248 89 c 0
 288 89 324 114 340 152 c 1
 453 152 l 1
 409 41 325 -23 225 -23 c 0
 123 -23 53 61 53 184 c 0
 53 285 89 400 143 470 c 0
 181 518 247 549 311 549 c 0
 375 549 422 524 452 474 c 0
 473 440 485 393 485 350 c 0
 485 311 481 273 471 226 c 1
368 319 m 1
 368 330 l 1
 368 346 l 1
 369 400 341 437 297 437 c 0
 242 437 205 397 188 319 c 1
 368 319 l 1
EndSplineSet
EndChar

StartChar: eacute
Encoding: 233 233 103
Width: 456
Flags: MW
HStem: -23 112<224.5 268 224.5 275> 226 93<188 368 188 471 172 368> 437 112<279 319>
VStem: 53 117<154 184 154 234.5> 368 117<319 371.5 330.5 346 346 346>
LayerCount: 2
Fore
SplineSet
461 757 m 1
 332 607 l 1
 275 607 l 1
 358 757 l 1
 461 757 l 1
471 226 m 1
 172 226 l 1
 171 206 l 2
 170 196 170 186 170 182 c 0
 170 126 201 89 248 89 c 0
 288 89 324 114 340 152 c 1
 453 152 l 1
 409 41 325 -23 225 -23 c 0
 123 -23 53 61 53 184 c 0
 53 285 89 400 143 470 c 0
 181 518 247 549 311 549 c 0
 375 549 422 524 452 474 c 0
 473 440 485 393 485 350 c 0
 485 311 481 273 471 226 c 1
368 319 m 1
 368 330 l 1
 368 346 l 1
 369 400 341 437 297 437 c 0
 242 437 205 397 188 319 c 1
 368 319 l 1
EndSplineSet
EndChar

StartChar: egrave
Encoding: 232 232 104
Width: 456
Flags: MW
HStem: -23 112<224.5 268 224.5 275> 226 93<188 368 188 471 172 368> 437 112<279 319> 607 150<327 342 244 378 327 327>
VStem: 53 117<154 184 154 234.5> 368 117<319 371.5 330.5 346 346 346>
LayerCount: 2
Fore
SplineSet
244 757 m 1
 342 757 l 1
 378 607 l 1
 327 607 l 1
 244 757 l 1
471 226 m 1
 172 226 l 1
 171 206 l 2
 170 196 170 186 170 182 c 0
 170 126 201 89 248 89 c 0
 288 89 324 114 340 152 c 1
 453 152 l 1
 409 41 325 -23 225 -23 c 0
 123 -23 53 61 53 184 c 0
 53 285 89 400 143 470 c 0
 181 518 247 549 311 549 c 0
 375 549 422 524 452 474 c 0
 473 440 485 393 485 350 c 0
 485 311 481 273 471 226 c 1
368 319 m 1
 368 330 l 1
 368 346 l 1
 369 400 341 437 297 437 c 0
 242 437 205 397 188 319 c 1
 368 319 l 1
EndSplineSet
EndChar

StartChar: ecircumflex
Encoding: 234 234 105
Width: 456
Flags: MW
HStem: -23 112<224.5 268 224.5 275> 226 93<188 368 188 471 172 368> 437 112<279 319>
VStem: 53 117<154 184 154 234.5> 368 117<319 371.5 330.5 346 346 346>
LayerCount: 2
Fore
SplineSet
310 757 m 1
 398 757 l 1
 457 610 l 1
 393 610 l 1
 343 707 l 1
 259 610 l 1
 196 610 l 1
 310 757 l 1
471 226 m 1
 172 226 l 1
 171 206 l 2
 170 196 170 186 170 182 c 0
 170 126 201 89 248 89 c 0
 288 89 324 114 340 152 c 1
 453 152 l 1
 409 41 325 -23 225 -23 c 0
 123 -23 53 61 53 184 c 0
 53 285 89 400 143 470 c 0
 181 518 247 549 311 549 c 0
 375 549 422 524 452 474 c 0
 473 440 485 393 485 350 c 0
 485 311 481 273 471 226 c 1
368 319 m 1
 368 330 l 1
 368 346 l 1
 369 400 341 437 297 437 c 0
 242 437 205 397 188 319 c 1
 368 319 l 1
EndSplineSet
EndChar

StartChar: idieresis
Encoding: 239 239 106
Width: 228
Flags: MW
HStem: 0 20 520 20<149 264 264 264> 621 120<120 189 98 210 120 251 272 341>
LayerCount: 2
Fore
SplineSet
264 540 m 1
 170 0 l 1
 55 0 l 1
 149 540 l 1
 264 540 l 1
210 741 m 1
 189 621 l 1
 98 621 l 1
 120 741 l 1
 210 741 l 1
362 741 m 1
 341 621 l 1
 251 621 l 1
 272 741 l 1
 362 741 l 1
EndSplineSet
EndChar

StartChar: iacute
Encoding: 237 237 107
Width: 228
Flags: MW
HStem: 0 20 520 20<149 264 264 264>
LayerCount: 2
Fore
SplineSet
264 540 m 1
 170 0 l 1
 55 0 l 1
 149 540 l 1
 264 540 l 1
367 757 m 1
 238 607 l 1
 180 607 l 1
 264 757 l 1
 367 757 l 1
EndSplineSet
EndChar

StartChar: igrave
Encoding: 236 236 108
Width: 228
Flags: MW
HStem: 0 20 520 20<149 264 264 264> 607 150<203 218 121 255 203 203>
LayerCount: 2
Fore
SplineSet
264 540 m 1
 170 0 l 1
 55 0 l 1
 149 540 l 1
 264 540 l 1
121 757 m 1
 218 757 l 1
 255 607 l 1
 203 607 l 1
 121 757 l 1
EndSplineSet
EndChar

StartChar: icircumflex
Encoding: 238 238 109
Width: 228
Flags: MW
HStem: 0 20 520 20<149 264 264 264>
LayerCount: 2
Fore
SplineSet
264 540 m 1
 170 0 l 1
 55 0 l 1
 149 540 l 1
 264 540 l 1
203 757 m 1
 291 757 l 1
 349 610 l 1
 286 610 l 1
 236 707 l 1
 151 610 l 1
 89 610 l 1
 203 757 l 1
EndSplineSet
EndChar

StartChar: lslash
Encoding: 322 322 110
Width: 228
Flags: MW
HStem: 0 20 709 20<179 294 294 294>
LayerCount: 2
Fore
SplineSet
243 435 m 1
 305 480 l 1
 291 398 l 1
 229 353 l 1
 167 0 l 1
 52 0 l 1
 103 294 l 1
 41 246 l 1
 55 329 l 1
 118 376 l 1
 179 729 l 1
 294 729 l 1
 243 435 l 1
EndSplineSet
EndChar

StartChar: ntilde
Encoding: 241 241 111
Width: 501
Flags: W
HStem: 0 20 437 112<305 432.5> 520 20<146 261 261 261> 622 71<437 447.5> 671 70<294 306.5> 724 20
VStem: 393 123<354.5 457.5>
LayerCount: 2
Fore
SplineSet
146 540 m 1xa2
 261 540 l 1x36
 247 458 l 1
 291 522 335 549 396 549 c 0
 469 549 516 497 516 418 c 0
 516 399 514 381 511 362 c 2
 448 0 l 1
 333 0 l 1
 388 313 l 2
 392 336 393 347 393 362 c 0
 393 411 372 437 333 437 c 0xc2
 277 437 234 387 220 304 c 2
 167 0 l 1
 52 0 l 1
 146 540 l 1xa2
486 744 m 1
 530 744 l 1
 513 665 474 622 421 622 c 0x16
 406 622 391 626 379 633 c 2
 338 658 l 2
 325 666 311 671 302 671 c 0
 286 671 274 657 260 624 c 1
 216 624 l 1
 235 700 270 741 315 741 c 0x0a
 340 741 342 740 373 724 c 2
 414 703 l 1
 429 694 433 693 441 693 c 0
 460 693 474 709 486 744 c 1
EndSplineSet
EndChar

StartChar: odieresis
Encoding: 246 246 112
Width: 501
Flags: MW
HStem: -23 112<241 287.5 241 289> 437 112<299 345.5> 621 120<255 324 233 345 255 386 407 476>
VStem: 67 117<170 221.5> 403 117<305.5 355.5>
LayerCount: 2
Fore
SplineSet
345 741 m 1
 324 621 l 1
 233 621 l 1
 255 741 l 1
 345 741 l 1
498 741 m 1
 476 621 l 1
 386 621 l 1
 407 741 l 1
 498 741 l 1
338 549 m 0
 451 549 520 473 520 350 c 0
 520 261 492 158 451 94 c 0
 401 16 332 -23 246 -23 c 0
 137 -23 67 54 67 176 c 0
 67 267 94 367 135 432 c 0
 184 508 255 549 338 549 c 0
321 437 m 0
 277 437 239 405 213 346 c 0
 195 305 184 251 184 205 c 0
 184 135 216 89 266 89 c 0
 309 89 348 122 374 180 c 0
 391 220 403 276 403 320 c 0
 403 391 370 437 321 437 c 0
EndSplineSet
EndChar

StartChar: oacute
Encoding: 243 243 113
Width: 501
Flags: MW
HStem: -23 112<241 287.5 241 289> 437 112<299 345.5>
VStem: 67 117<170 221.5> 403 117<305.5 355.5>
LayerCount: 2
Fore
SplineSet
491 757 m 1
 362 607 l 1
 304 607 l 1
 388 757 l 1
 491 757 l 1
338 549 m 0
 451 549 520 473 520 350 c 0
 520 261 492 158 451 94 c 0
 401 16 332 -23 246 -23 c 0
 137 -23 67 54 67 176 c 0
 67 267 94 367 135 432 c 0
 184 508 255 549 338 549 c 0
321 437 m 0
 277 437 239 405 213 346 c 0
 195 305 184 251 184 205 c 0
 184 135 216 89 266 89 c 0
 309 89 348 122 374 180 c 0
 391 220 403 276 403 320 c 0
 403 391 370 437 321 437 c 0
EndSplineSet
EndChar

StartChar: ograve
Encoding: 242 242 114
Width: 501
Flags: MW
HStem: -23 112<241 287.5 241 289> 437 112<299 345.5> 607 150<351 366 268 403 351 351>
VStem: 67 117<170 221.5> 403 117<305.5 355.5>
LayerCount: 2
Fore
SplineSet
268 757 m 1
 366 757 l 1
 403 607 l 1
 351 607 l 1
 268 757 l 1
338 549 m 0
 451 549 520 473 520 350 c 0
 520 261 492 158 451 94 c 0
 401 16 332 -23 246 -23 c 0
 137 -23 67 54 67 176 c 0
 67 267 94 367 135 432 c 0
 184 508 255 549 338 549 c 0
321 437 m 0
 277 437 239 405 213 346 c 0
 195 305 184 251 184 205 c 0
 184 135 216 89 266 89 c 0
 309 89 348 122 374 180 c 0
 391 220 403 276 403 320 c 0
 403 391 370 437 321 437 c 0
EndSplineSet
EndChar

StartChar: ocircumflex
Encoding: 244 244 115
Width: 501
Flags: MW
HStem: -23 112<241 287.5 241 289> 437 112<299 345.5>
VStem: 67 117<170 221.5> 403 117<305.5 355.5>
LayerCount: 2
Fore
SplineSet
340 757 m 1
 428 757 l 1
 487 610 l 1
 423 610 l 1
 373 707 l 1
 288 610 l 1
 226 610 l 1
 340 757 l 1
338 549 m 0
 451 549 520 473 520 350 c 0
 520 261 492 158 451 94 c 0
 401 16 332 -23 246 -23 c 0
 137 -23 67 54 67 176 c 0
 67 267 94 367 135 432 c 0
 184 508 255 549 338 549 c 0
321 437 m 0
 277 437 239 405 213 346 c 0
 195 305 184 251 184 205 c 0
 184 135 216 89 266 89 c 0
 309 89 348 122 374 180 c 0
 391 220 403 276 403 320 c 0
 403 391 370 437 321 437 c 0
EndSplineSet
EndChar

StartChar: otilde
Encoding: 245 245 116
Width: 501
Flags: W
HStem: -23 112<241 287.5 241 289> 437 112<299 345.5> 671 70<286 287.5> 724 20
VStem: 67 117<170 221.5> 403 117<305.5 355.5>
LayerCount: 2
Fore
SplineSet
338 549 m 0xdc
 451 549 520 473 520 350 c 0
 520 261 492 158 451 94 c 0
 401 16 332 -23 246 -23 c 0
 137 -23 67 54 67 176 c 0
 67 267 94 367 135 432 c 0
 184 508 255 549 338 549 c 0xdc
321 437 m 0
 277 437 239 405 213 346 c 0
 195 305 184 251 184 205 c 0
 184 135 216 89 266 89 c 0
 309 89 348 122 374 180 c 0
 391 220 403 276 403 320 c 0
 403 391 370 437 321 437 c 0
479 744 m 1
 524 744 l 1x1c
 493 665 446 622 393 622 c 0
 379 622 364 626 354 633 c 2
 317 658 l 2
 305 666 292 671 283 671 c 0
 267 671 254 659 233 624 c 1
 189 624 l 1
 221 700 263 741 309 741 c 0x2c
 333 741 335 740 364 724 c 2
 401 703 l 1
 414 694 417 693 426 693 c 0
 445 693 463 710 479 744 c 1
EndSplineSet
EndChar

StartChar: scaron
Encoding: 353 353 117
Width: 456
Flags: W
HStem: -23 112<223.5 276.5 223.5 300> 437 112<285.5 320.5>
VStem: 104 122<316 400> 337 121<128 155.5> 371 112<399 401>
LayerCount: 2
Fore
SplineSet
375 610 m 1xe8
 287 610 l 1
 229 757 l 1
 292 757 l 1
 342 660 l 1
 427 757 l 1
 489 757 l 1
 375 610 l 1xe8
479 366 m 1
 368 366 l 1
 370 378 371 382 371 385 c 0xc8
 371 417 343 437 298 437 c 0
 255 437 226 416 226 384 c 0
 226 364 237 354 280 339 c 2
 358 311 l 2
 426 286 458 247 458 188 c 0
 458 59 370 -23 230 -23 c 0
 179 -23 139 -12 109 10 c 0
 72 36 49 82 49 127 c 0
 49 137 50 143 52 157 c 1
 165 157 l 1
 167 112 196 89 251 89 c 0
 302 89 337 112 337 144 c 0xf0
 337 167 326 176 274 196 c 2
 210 221 l 2
 137 250 104 288 104 344 c 0
 104 398 128 456 165 494 c 0
 201 530 254 549 317 549 c 0
 421 549 483 494 483 404 c 0
 483 394 482 384 479 366 c 1
EndSplineSet
EndChar

StartChar: udieresis
Encoding: 252 252 118
Width: 501
Flags: MW
HStem: -23 112<155.5 283.5> 520 20<142 257 257 257 423 538 538 538> 621 120<254 323 233 345 254 386 407 476>
VStem: 72 123<69 172>
LayerCount: 2
Fore
SplineSet
345 741 m 1
 323 621 l 1
 233 621 l 1
 254 741 l 1
 345 741 l 1
497 741 m 1
 476 621 l 1
 386 621 l 1
 407 741 l 1
 497 741 l 1
444 0 m 1
 329 0 l 1
 341 68 l 1
 296 4 252 -23 192 -23 c 0
 119 -23 72 29 72 109 c 0
 72 127 74 145 77 164 c 2
 142 540 l 1
 257 540 l 1
 200 213 l 2
 196 189 195 179 195 165 c 0
 195 114 216 89 257 89 c 0
 310 89 353 141 367 222 c 2
 423 540 l 1
 538 540 l 1
 444 0 l 1
EndSplineSet
EndChar

StartChar: uacute
Encoding: 250 250 119
Width: 501
Flags: MW
HStem: -23 112<155.5 283.5> 520 20<142 257 257 257 423 538 538 538>
VStem: 72 123<69 172>
LayerCount: 2
Fore
SplineSet
481 757 m 1
 351 607 l 1
 294 607 l 1
 377 757 l 1
 481 757 l 1
444 0 m 1
 329 0 l 1
 341 68 l 1
 296 4 252 -23 192 -23 c 0
 119 -23 72 29 72 109 c 0
 72 127 74 145 77 164 c 2
 142 540 l 1
 257 540 l 1
 200 213 l 2
 196 189 195 179 195 165 c 0
 195 114 216 89 257 89 c 0
 310 89 353 141 367 222 c 2
 423 540 l 1
 538 540 l 1
 444 0 l 1
EndSplineSet
EndChar

StartChar: ugrave
Encoding: 249 249 120
Width: 501
Flags: MW
HStem: -23 112<155.5 283.5> 520 20<142 257 257 257 423 538 538 538> 607 150<349 364 266 401 349 349>
VStem: 72 123<69 172>
LayerCount: 2
Fore
SplineSet
266 757 m 1
 364 757 l 1
 401 607 l 1
 349 607 l 1
 266 757 l 1
444 0 m 1
 329 0 l 1
 341 68 l 1
 296 4 252 -23 192 -23 c 0
 119 -23 72 29 72 109 c 0
 72 127 74 145 77 164 c 2
 142 540 l 1
 257 540 l 1
 200 213 l 2
 196 189 195 179 195 165 c 0
 195 114 216 89 257 89 c 0
 310 89 353 141 367 222 c 2
 423 540 l 1
 538 540 l 1
 444 0 l 1
EndSplineSet
EndChar

StartChar: ucircumflex
Encoding: 251 251 121
Width: 501
Flags: MW
HStem: -23 112<155.5 283.5> 520 20<142 257 257 257 423 538 538 538>
VStem: 72 123<69 172>
LayerCount: 2
Fore
SplineSet
332 757 m 1
 421 757 l 1
 479 610 l 1
 415 610 l 1
 365 707 l 1
 281 610 l 1
 218 610 l 1
 332 757 l 1
444 0 m 1
 329 0 l 1
 341 68 l 1
 296 4 252 -23 192 -23 c 0
 119 -23 72 29 72 109 c 0
 72 127 74 145 77 164 c 2
 142 540 l 1
 257 540 l 1
 200 213 l 2
 196 189 195 179 195 165 c 0
 195 114 216 89 257 89 c 0
 310 89 353 141 367 222 c 2
 423 540 l 1
 538 540 l 1
 444 0 l 1
EndSplineSet
EndChar

StartChar: yacute
Encoding: 253 253 122
Width: 456
Flags: MW
HStem: -219 20 520 20<101 228 228 228 417 535 535 535>
LayerCount: 2
Fore
SplineSet
417 540 m 1
 535 540 l 1
 241 -98 l 2
 211 -164 193 -187 156 -203 c 0
 131 -214 102 -219 67 -219 c 0
 49 -219 41 -218 30 -215 c 1
 49 -106 l 1
 57 -108 63 -108 78 -108 c 0
 128 -108 164 -69 164 -16 c 0
 164 -9 164 -5 163 0 c 2
 101 540 l 1
 228 540 l 1
 257 147 l 1
 417 540 l 1
464 757 m 1
 334 607 l 1
 277 607 l 1
 360 757 l 1
 464 757 l 1
EndSplineSet
EndChar

StartChar: zcaron
Encoding: 382 382 123
Width: 410
Flags: MW
HStem: 0 113<37 37 179 384 17 37> 427 113<126 311 106 471 452 452>
LayerCount: 2
Fore
SplineSet
471 540 m 1
 452 427 l 1
 179 113 l 1
 404 113 l 1
 384 0 l 1
 17 0 l 1
 37 113 l 1
 311 427 l 1
 106 427 l 1
 126 540 l 1
 471 540 l 1
356 610 m 1
 268 610 l 1
 209 757 l 1
 273 757 l 1
 323 660 l 1
 408 757 l 1
 470 757 l 1
 356 610 l 1
EndSplineSet
EndChar

StartChar: eth
Encoding: 240 240 124
Width: 501
Flags: W
HStem: -23 112<258 292> 431 99<280 310 268.5 326.5> 718 20<413 413> 724 20<250 250>
VStem: 68 118<182.5 227.5> 402 117<297 347.5>
LayerCount: 2
Fore
SplineSet
291 609 m 1xec
 212 564 l 1
 178 607 l 1
 250 649 l 1
 228 667 221 672 192 694 c 1
 250 744 l 1xdc
 278 729 280 728 317 701 c 2
 328 693 l 1
 413 738 l 1
 449 695 l 1
 372 654 l 1
 479 558 519 474 519 345 c 0
 519 249 495 162 450 92 c 0
 401 15 334 -23 250 -23 c 0
 136 -23 68 52 68 178 c 0
 68 277 98 380 148 449 c 0
 184 500 240 530 297 530 c 0
 323 530 340 524 371 503 c 1
 351 544 322 583 291 609 c 1xec
317 431 m 0
 243 431 186 333 186 206 c 0
 186 159 195 130 214 112 c 0
 229 97 248 89 268 89 c 0
 346 89 402 189 402 326 c 0
 402 369 394 392 374 409 c 0
 357 423 336 431 317 431 c 0
EndSplineSet
EndChar

StartChar: thorn
Encoding: 254 254 125
Width: 501
Flags: MW
HStem: -218 20 -23 112<253.5 308.5 251.5 348.5> 437 112<352.5 355.5> 709 20<174 289 289 289>
VStem: 405 117<259.5 357>
LayerCount: 2
Fore
SplineSet
289 729 m 1
 242 461 l 1
 280 520 325 549 380 549 c 0
 467 549 522 470 522 343 c 0
 522 140 415 -23 282 -23 c 0
 225 -23 190 5 173 64 c 1
 124 -218 l 1
 9 -218 l 1
 174 729 l 1
 289 729 l 1
334 437 m 0
 262 437 202 329 202 202 c 0
 202 133 230 89 273 89 c 0
 344 89 405 197 405 322 c 0
 405 392 377 437 334 437 c 0
EndSplineSet
EndChar

StartChar: ydieresis
Encoding: 255 255 126
Width: 456
Flags: MW
HStem: -219 20 520 20<101 228 228 228 417 535 535 535> 621 120<235 304 213 325 235 366 387 456>
LayerCount: 2
Fore
SplineSet
417 540 m 1
 535 540 l 1
 241 -98 l 2
 211 -164 193 -187 156 -203 c 0
 131 -214 102 -219 67 -219 c 0
 49 -219 41 -218 30 -215 c 1
 49 -106 l 1
 57 -108 63 -108 78 -108 c 0
 128 -108 164 -69 164 -16 c 0
 164 -9 164 -5 163 0 c 2
 101 540 l 1
 228 540 l 1
 257 147 l 1
 417 540 l 1
325 741 m 1
 304 621 l 1
 213 621 l 1
 235 741 l 1
 325 741 l 1
477 741 m 1
 456 621 l 1
 366 621 l 1
 387 741 l 1
 477 741 l 1
EndSplineSet
EndChar

StartChar: one
Encoding: 49 49 127
Width: 456
Flags: MW
HStem: 0 20
LayerCount: 2
Fore
SplineSet
281 489 m 1
 141 489 l 1
 157 582 l 1
 257 582 325 625 357 709 c 1
 434 709 l 1
 310 0 l 1
 195 0 l 1
 281 489 l 1
EndSplineSet
EndChar

StartChar: two
Encoding: 50 50 128
Width: 456
Flags: MW
HStem: 0 125<196 420> 612 112<299.5 350>
VStem: 398 117<519 557>
LayerCount: 2
Fore
SplineSet
442 125 m 1
 420 0 l 1
 25 0 l 1
 54 132 94 194 208 277 c 1
 306 352 332 374 358 408 c 0
 383 441 398 487 398 532 c 0
 398 582 372 612 328 612 c 0
 271 612 234 558 224 462 c 1
 113 462 l 1
 135 630 218 724 346 724 c 0
 453 724 515 661 515 552 c 0
 515 486 496 426 459 373 c 0
 434 338 404 310 338 259 c 0
 240 184 216 161 196 125 c 1
 442 125 l 1
EndSplineSet
EndChar

StartChar: three
Encoding: 51 51 129
Width: 456
Flags: W
HStem: -23 122<222.5 262> 612 112<301 336.5>
VStem: 346 117<221.5 258.5> 382 121<534 562.5>
LayerCount: 2
Fore
SplineSet
233 317 m 1xe0
 250 411 l 1
 258 411 l 2
 302 411 337 428 358 459 c 0
 372 480 382 516 382 542 c 0
 382 583 355 612 318 612 c 0
 284 612 257 593 241 558 c 0
 235 543 230 525 222 486 c 1
 116 486 l 1
 143 650 212 724 339 724 c 0
 443 724 503 669 503 573 c 0xd0
 503 495 469 429 404 380 c 1
 446 349 463 313 463 255 c 0
 463 188 442 118 407 68 c 0
 365 8 302 -23 222 -23 c 0
 116 -23 55 41 55 151 c 0
 55 170 56 185 60 208 c 1
 171 208 l 1
 172 198 l 1
 172 176 l 1
 173 127 199 99 246 99 c 0
 282 99 309 119 329 159 c 0
 340 181 346 205 346 230 c 0
 346 287 315 317 258 317 c 2
 249 317 l 1
 233 317 l 1xe0
EndSplineSet
EndChar

StartChar: four
Encoding: 52 52 130
Width: 456
Flags: MW
HStem: 0 20 157 116<149 280 47 301 415 456 149 395>
LayerCount: 2
Fore
SplineSet
476 273 m 1
 456 157 l 1
 395 157 l 1
 368 0 l 1
 253 0 l 1
 280 157 l 1
 47 157 l 1
 68 275 l 1
 356 709 l 1
 491 709 l 1
 415 273 l 1
 476 273 l 1
301 273 m 1
 354 577 l 1
 149 273 l 1
 301 273 l 1
EndSplineSet
EndChar

StartChar: five
Encoding: 53 53 131
Width: 456
Flags: MW
HStem: -23 122<213.5 252.5> 367 112<260.5 368.5> 584 125<260 503 260 260>
VStem: 48 115<143 148.5> 352 117<265 305>
LayerCount: 2
Fore
SplineSet
525 709 m 1
 503 584 l 1
 260 584 l 1
 216 436 l 1
 255 467 285 479 324 479 c 0
 413 479 469 410 469 300 c 0
 469 230 448 154 412 97 c 0
 363 19 293 -23 212 -23 c 0
 113 -23 48 42 48 141 c 0
 48 156 49 165 52 185 c 1
 165 185 l 1
 164 176 163 168 163 162 c 0
 163 124 192 99 235 99 c 0
 274 99 305 121 326 163 c 0
 341 192 352 241 352 276 c 0
 352 334 325 367 278 367 c 0
 243 367 213 348 195 314 c 1
 91 314 l 1
 211 709 l 1
 525 709 l 1
EndSplineSet
EndChar

StartChar: six
Encoding: 54 54 132
Width: 456
Flags: MW
HStem: -23 122<226 268> 355 112<259 379> 612 112<321 359.5>
VStem: 70 107<161.5 234 161.5 234.5> 356 117<262 295>
LayerCount: 2
Fore
SplineSet
512 548 m 1
 406 548 l 1
 398 594 379 612 340 612 c 0
 293 612 262 581 240 512 c 0
 229 480 228 476 213 411 c 1
 254 449 293 467 336 467 c 0
 422 467 473 405 473 300 c 0
 473 224 450 146 410 83 c 0
 365 14 303 -23 233 -23 c 0
 134 -23 70 53 70 171 c 0
 70 298 109 483 156 572 c 0
 209 674 278 724 364 724 c 0
 457 724 513 666 513 570 c 0
 513 566 513 557 512 548 c 1
290 355 m 0
 228 355 177 280 177 188 c 0
 177 135 205 99 247 99 c 0
 307 99 356 175 356 269 c 0
 356 321 329 355 290 355 c 0
EndSplineSet
EndChar

StartChar: seven
Encoding: 55 55 133
Width: 456
Flags: MW
HStem: 0 20 584 125<146 414 125 557>
LayerCount: 2
Fore
SplineSet
557 709 m 1
 538 599 l 1
 535 595 531 590 527 585 c 2
 452 491 l 1
 332 328 268 190 224 0 c 1
 108 0 l 1
 174 242 254 396 414 584 c 1
 125 584 l 1
 146 709 l 1
 557 709 l 1
EndSplineSet
EndChar

StartChar: eight
Encoding: 56 56 134
Width: 456
Flags: W
HStem: -23 122<221.5 276 221.5 294> 330 95<276 302.5> 612 112<298 349>
VStem: 49 117<156.5 182.5> 128 100<476.5 531.5 476.5 558.5> 354 117<204 272.5> 401 107<533 562>
LayerCount: 2
Fore
SplineSet
403 386 m 1xea
 453 350 471 314 471 253 c 0
 471 100 362 -23 226 -23 c 0
 117 -23 49 46 49 155 c 0xf4
 49 210 67 269 97 313 c 0
 118 343 139 361 181 386 c 1
 141 423 128 451 128 496 c 0
 128 621 227 724 346 724 c 0
 442 724 508 662 508 571 c 0
 508 495 477 440 403 386 c 1xea
326 612 m 0xea
 270 612 228 564 228 499 c 0
 228 454 255 425 297 425 c 0
 356 425 401 475 401 540 c 0
 401 584 372 612 326 612 c 0xea
280 330 m 0xf4
 217 330 166 263 166 180 c 0
 166 133 199 99 244 99 c 0
 308 99 354 161 354 247 c 0
 354 298 325 330 280 330 c 0xf4
EndSplineSet
EndChar

StartChar: nine
Encoding: 57 57 135
Width: 456
Flags: W
HStem: -23 122<214 249> 228 116<256.5 261> 612 112<288.5 342>
VStem: 56 113<86 154.5> 99 112<404 482 404 493> 394 107<470 548.5>
LayerCount: 2
Fore
SplineSet
59 165 m 1xf4
 170 165 l 1
 169 160 169 156 169 153 c 0xf4
 169 121 195 99 233 99 c 0
 275 99 310 129 330 182 c 0
 340 210 348 242 358 291 c 1
 312 243 284 228 238 228 c 0
 151 228 99 293 99 402 c 0xe8
 99 584 204 724 339 724 c 0
 438 724 501 644 501 519 c 0
 501 397 467 242 416 135 c 0
 367 32 294 -23 204 -23 c 0
 116 -23 56 40 56 132 c 0
 56 142 57 150 59 165 c 1xf4
319 612 m 0
 258 612 211 533 211 431 c 0xe8
 211 377 236 344 277 344 c 0
 343 344 394 420 394 520 c 0
 394 577 365 612 319 612 c 0
EndSplineSet
EndChar

StartChar: zero
Encoding: 48 48 136
Width: 456
Flags: MW
HStem: -23 122<227 268.5> 612 112<309 342>
VStem: 66 117<157.5 229.5> 386 117<498.5 553.5>
LayerCount: 2
Fore
SplineSet
345 724 m 0
 444 724 503 650 503 526 c 0
 503 420 470 243 434 152 c 0
 389 39 315 -23 222 -23 c 0
 124 -23 66 52 66 178 c 0
 66 281 99 458 135 549 c 0
 179 662 254 724 345 724 c 0
323 612 m 0
 295 612 271 594 252 558 c 0
 224 506 183 283 183 183 c 0
 183 132 208 99 246 99 c 0
 295 99 323 139 346 243 c 0
 368 338 386 469 386 528 c 0
 386 579 361 612 323 612 c 0
EndSplineSet
EndChar

StartChar: sterling
Encoding: 163 163 137
Width: 456
Flags: W
HStem: -23 125<330 338> 7 112<146.5 236.5> 316 55<91 140 91 154 81 140 263 363 263 263> 603 112<315.5 355>
VStem: 119 117<489 507.5> 158 107<255 269> 406 110<531.5 540.5>
LayerCount: 2
Fore
SplineSet
373 371 m 1x7a
 363 316 l 1
 263 316 l 1
 265 296 265 295 265 291 c 0
 265 219 231 164 141 86 c 1
 193 115 204 119 229 119 c 0x64
 244 119 247 119 283 110 c 0
 304 105 323 102 337 102 c 0
 367 102 393 110 430 131 c 1
 445 22 l 1
 392 -11 358 -23 318 -23 c 0x84
 295 -23 279 -20 240 -8 c 0
 203 3 184 7 162 7 c 0
 131 7 108 0 67 -21 c 1
 40 80 l 1
 125 141 158 191 158 261 c 0x74
 158 277 157 289 154 316 c 1
 81 316 l 1
 91 371 l 1
 140 371 l 1
 122 433 119 449 119 478 c 0
 119 537 144 600 187 646 c 0
 229 692 283 715 348 715 c 0
 459 715 516 655 516 538 c 0
 516 525 515 512 512 484 c 1
 405 484 l 1
 406 495 406 504 406 510 c 0
 406 571 380 603 330 603 c 0
 279 603 236 554 236 496 c 0
 236 482 237 473 246 436 c 0
 253 403 256 387 259 371 c 1
 373 371 l 1x7a
EndSplineSet
EndChar

StartChar: dollar
Encoding: 36 36 138
Width: 456
Flags: W
VStem: 48 112<149.5 157> 116 107<484 516.5> 352 117<191 218.5> 408 107<540 556>
LayerCount: 2
Fore
SplineSet
510 498 m 1x50
 405 498 l 1
 407 517 408 526 408 536 c 0x50
 408 576 391 602 360 608 c 1
 325 407 l 1
 427 369 469 319 469 236 c 0
 469 146 426 59 360 16 c 0
 329 -4 295 -15 251 -21 c 1
 232 -126 l 1
 177 -126 l 1
 195 -21 l 1
 100 -9 48 51 48 148 c 0
 48 166 50 182 54 207 c 1
 161 207 l 1
 160 184 160 179 160 175 c 0xa0
 160 124 178 95 214 86 c 1
 251 299 l 1
 160 327 116 384 116 475 c 0
 116 558 158 636 224 677 c 0
 254 695 281 704 322 709 c 1
 332 763 l 1
 387 763 l 1
 378 709 l 1
 426 703 454 691 477 665 c 0
 500 639 515 592 515 547 c 0
 515 533 514 521 510 498 c 1x50
273 427 m 1
 305 608 l 1
 252 596 223 558 223 501 c 0
 223 467 239 444 273 427 c 1
303 282 m 1x20
 269 86 l 1
 322 101 352 142 352 199 c 0
 352 238 336 267 303 282 c 1x20
EndSplineSet
EndChar

StartChar: cent
Encoding: 162 162 139
Width: 456
Flags: MW
VStem: 65 117<163.5 212.5>
LayerCount: 2
Fore
SplineSet
337 435 m 1
 276 89 l 1
 310 99 332 128 351 187 c 1
 461 187 l 1
 431 65 352 -17 257 -22 c 1
 239 -124 l 1
 185 -124 l 1
 203 -20 l 1
 184 -16 169 -12 155 -5 c 0
 101 23 65 93 65 172 c 0
 65 253 91 355 129 425 c 0
 171 501 227 541 302 548 c 1
 317 634 l 1
 371 634 l 1
 356 547 l 1
 375 544 388 541 401 535 c 0
 454 510 491 446 491 381 c 0
 491 374 491 369 487 338 c 1
 378 338 l 1
 378 398 367 423 337 435 c 1
223 93 m 1
 283 435 l 1
 261 428 244 413 232 393 c 0
 202 343 182 262 182 191 c 0
 182 136 193 109 223 93 c 1
EndSplineSet
EndChar

StartChar: florin
Encoding: 402 402 140
Width: 456
Flags: MW
HStem: -220 116<59 81 59 99> 383 100<170 254 153 283 394 478 170 365> 629 115<471.5 494.5>
LayerCount: 2
Fore
SplineSet
495 483 m 1
 478 383 l 1
 365 383 l 1
 250 1 l 2
 204 -154 145 -220 53 -220 c 0
 27 -220 8 -214 -17 -198 c 1
 23 -83 l 1
 37 -96 52 -104 66 -104 c 0
 96 -104 114 -76 139 7 c 2
 254 383 l 1
 153 383 l 1
 170 483 l 1
 283 483 l 1
 302 542 l 2
 346 681 405 744 490 744 c 0
 517 744 533 740 566 727 c 1
 530 613 l 1
 509 626 501 629 488 629 c 0
 455 629 429 595 407 524 c 2
 394 483 l 1
 495 483 l 1
EndSplineSet
EndChar

StartChar: Euro
Encoding: 8364 8364 141
Width: 456
Flags: MW
HStem: -23 131<287 288.5> 250 68<87 111 55 116 231 359> 386 68<110 128 79 147 265 422> 594 130<372.5 406.5>
LayerCount: 2
Fore
SplineSet
265 454 m 1
 453 454 l 1
 422 386 l 1
 244 386 l 1
 237 358 232 331 231 318 c 1
 390 318 l 1
 359 250 l 1
 228 250 l 1
 228 233 231 205 236 185 c 0
 249 132 270 108 304 108 c 0
 335 108 356 117 423 160 c 1
 397 11 l 1
 332 -15 304 -23 273 -23 c 0
 242 -23 211 -11 186 9 c 0
 133 54 111 124 111 247 c 2
 111 248 l 1
 111 250 l 1
 55 250 l 1
 87 318 l 1
 116 318 l 1
 116 326 124 368 127 383 c 0
 128 384 128 384 128 386 c 1
 79 386 l 1
 110 454 l 1
 147 454 l 1
 158 487 176 529 195 562 c 0
 256 670 329 724 416 724 c 0
 471 724 501 708 546 656 c 1
 487 527 l 1
 448 576 423 594 390 594 c 0
 342 594 301 548 265 454 c 1
EndSplineSet
EndChar

StartChar: yen
Encoding: 165 165 142
Width: 456
Flags: MW
HStem: 0 20 180 60<98 208 88 218 333 441> 292 60<118 228 108 232 357 460>
LayerCount: 2
Fore
SplineSet
471 352 m 1
 460 292 l 1
 342 292 l 1
 333 240 l 1
 451 240 l 1
 441 180 l 1
 323 180 l 1
 291 0 l 1
 177 0 l 1
 208 180 l 1
 88 180 l 1
 98 240 l 1
 218 240 l 1
 228 292 l 1
 108 292 l 1
 118 352 l 1
 232 352 l 1
 127 704 l 1
 242 704 l 1
 311 450 l 1
 465 704 l 1
 576 704 l 1
 357 352 l 1
 471 352 l 1
EndSplineSet
EndChar

StartChar: onesuperior
Encoding: 185 185 143
Width: 273
Flags: W
LayerCount: 2
Fore
SplineSet
171 573 m 1
 84 573 l 1
 95 634 l 1
 158 634 200 659 219 709 c 1
 271 709 l 1
 197 284 l 1
 120 284 l 1
 171 573 l 1
EndSplineSet
EndChar

StartChar: twosuperior
Encoding: 178 178 144
Width: 273
Flags: MW
HStem: 284 80<170 307> 646 72<227.5 258.5>
VStem: 287 76<576.5 614.5>
LayerCount: 2
Fore
SplineSet
321 364 m 1
 307 284 l 1
 56 284 l 1
 73 365 99 404 171 454 c 1
 270 525 287 547 287 600 c 0
 287 629 272 646 245 646 c 0
 210 646 188 615 183 557 c 1
 109 557 l 1
 122 662 173 718 255 718 c 0
 324 718 363 680 363 612 c 0
 363 541 336 498 253 437 c 0
 198 397 181 382 170 364 c 1
 321 364 l 1
EndSplineSet
EndChar

StartChar: threesuperior
Encoding: 179 179 145
Width: 273
Flags: W
HStem: 271 78<182 213.5 182 227> 646 72<221.5 248.5>
VStem: 75 76<381 384> 257 76<402 432> 274 82<602 618.5>
LayerCount: 2
Fore
SplineSet
184 471 m 1xf0
 195 534 l 1
 229 535 242 539 255 553 c 0
 267 566 274 585 274 606 c 0
 274 631 260 646 237 646 c 0
 206 646 192 627 182 571 c 1
 111 571 l 1
 126 672 170 718 252 718 c 0
 319 718 356 685 356 625 c 0xc8
 356 579 337 541 298 512 c 1
 322 494 333 472 333 439 c 0
 333 339 272 271 182 271 c 0
 114 271 75 310 75 378 c 0
 75 390 76 399 78 414 c 1
 153 414 l 1
 151 401 151 400 151 396 c 0
 151 366 167 349 197 349 c 0
 230 349 257 382 257 422 c 0
 257 442 250 456 236 464 c 0
 230 468 205 473 195 472 c 0
 186 471 186 471 184 471 c 1xf0
EndSplineSet
EndChar

StartChar: period
Encoding: 46 46 146
Width: 228
Flags: MW
HStem: 0 146<77 175 52 200>
LayerCount: 2
Fore
SplineSet
200 146 m 1
 175 0 l 1
 52 0 l 1
 77 146 l 1
 200 146 l 1
EndSplineSet
EndChar

StartChar: colon
Encoding: 58 58 147
Width: 273
Flags: MW
HStem: 0 146<118 216 93 241> 374 146<184 282 159 307>
LayerCount: 2
Fore
SplineSet
241 146 m 1
 216 0 l 1
 93 0 l 1
 118 146 l 1
 241 146 l 1
307 520 m 1
 282 374 l 1
 159 374 l 1
 184 520 l 1
 307 520 l 1
EndSplineSet
EndChar

StartChar: periodcentered
Encoding: 183 183 148
Width: 228
Flags: MW
HStem: 182 100<135 203 117 221>
LayerCount: 2
Fore
SplineSet
221 282 m 1
 203 182 l 1
 117 182 l 1
 135 282 l 1
 221 282 l 1
EndSplineSet
EndChar

StartChar: middot
Encoding: 183 183 149
Width: 228
Flags: MW
HStem: 182 100<135 203 117 221>
LayerCount: 2
Fore
SplineSet
221 282 m 1
 203 182 l 1
 117 182 l 1
 135 282 l 1
 221 282 l 1
EndSplineSet
EndChar

StartChar: ellipsis
Encoding: 8230 8230 150
Width: 820
Flags: MW
HStem: 0 146<100 198 75 223 100 348 374 471 647 744>
LayerCount: 2
Fore
SplineSet
223 146 m 1
 198 0 l 1
 75 0 l 1
 100 146 l 1
 223 146 l 1
497 146 m 1
 471 0 l 1
 348 0 l 1
 374 146 l 1
 497 146 l 1
770 146 m 1
 744 0 l 1
 621 0 l 1
 647 146 l 1
 770 146 l 1
EndSplineSet
EndChar

StartChar: comma
Encoding: 44 44 151
Width: 228
Flags: MW
HStem: 0 146<78 123 52 201>
LayerCount: 2
Fore
SplineSet
78 146 m 1
 201 146 l 1
 177 9 l 1
 161 -101 112 -158 22 -174 c 1
 32 -118 l 1
 83 -107 112 -68 123 0 c 1
 52 0 l 1
 78 146 l 1
EndSplineSet
EndChar

StartChar: semicolon
Encoding: 59 59 152
Width: 273
Flags: MW
HStem: 0 146<118 163 92 241> 374 146<183 281 158 306>
LayerCount: 2
Fore
SplineSet
118 146 m 1
 241 146 l 1
 217 9 l 1
 201 -101 152 -158 62 -174 c 1
 72 -118 l 1
 123 -107 152 -68 163 0 c 1
 92 0 l 1
 118 146 l 1
306 520 m 1
 281 374 l 1
 158 374 l 1
 183 520 l 1
 306 520 l 1
EndSplineSet
EndChar

StartChar: quoteleft
Encoding: 8216 8216 153
Width: 228
Flags: MW
HStem: 469 125<204 248 137 270> 709 20<293 293>
LayerCount: 2
Fore
SplineSet
248 469 m 1
 137 469 l 1
 156 578 l 1
 167 665 220 722 293 729 c 1
 285 683 l 1
 237 673 210 644 204 594 c 1
 270 594 l 1
 248 469 l 1
EndSplineSet
EndChar

StartChar: quotedblright
Encoding: 8221 8221 154
Width: 410
Flags: MW
HStem: 604 125<187 231 165 298 187 356 377 421>
LayerCount: 2
Fore
SplineSet
187 729 m 1
 298 729 l 1
 279 620 l 1
 267 534 215 476 142 469 c 1
 150 515 l 1
 197 525 224 554 231 604 c 1
 165 604 l 1
 187 729 l 1
377 729 m 1
 488 729 l 1
 469 620 l 1
 457 533 406 476 332 469 c 1
 340 515 l 1
 388 525 414 554 421 604 c 1
 356 604 l 1
 377 729 l 1
EndSplineSet
EndChar

StartChar: quotedblleft
Encoding: 8220 8220 155
Width: 410
Flags: MW
HStem: 469 125<207 251 140 273 207 326 393 437> 709 20<296 296 482 482>
LayerCount: 2
Fore
SplineSet
251 469 m 1
 140 469 l 1
 159 578 l 1
 170 665 223 722 296 729 c 1
 288 683 l 1
 240 673 213 644 207 594 c 1
 273 594 l 1
 251 469 l 1
437 469 m 1
 326 469 l 1
 345 578 l 1
 357 665 409 722 482 729 c 1
 474 683 l 1
 426 673 400 644 393 594 c 1
 459 594 l 1
 437 469 l 1
EndSplineSet
EndChar

StartChar: quotedblbase
Encoding: 8222 8222 156
Width: 410
Flags: MW
HStem: 0 125<75 119 53 186 75 246 268 312>
LayerCount: 2
Fore
SplineSet
75 125 m 1
 186 125 l 1
 167 16 l 1
 155 -71 103 -128 30 -135 c 1
 38 -89 l 1
 85 -79 112 -50 119 0 c 1
 53 0 l 1
 75 125 l 1
268 125 m 1
 379 125 l 1
 359 16 l 1
 348 -71 296 -128 223 -135 c 1
 231 -89 l 1
 278 -79 305 -49 312 0 c 1
 246 0 l 1
 268 125 l 1
EndSplineSet
EndChar

StartChar: exclam
Encoding: 33 33 157
Width: 273
Flags: MW
HStem: 0 146<117 215 92 240>
LayerCount: 2
Fore
SplineSet
342 726 m 1
 306 516 l 1
 217 207 l 1
 162 207 l 1
 183 516 l 1
 219 726 l 1
 342 726 l 1
240 146 m 1
 215 0 l 1
 92 0 l 1
 117 146 l 1
 240 146 l 1
EndSplineSet
EndChar

StartChar: exclamdown
Encoding: 161 161 158
Width: 273
Flags: MW
HStem: 394 146<123 271 148 246>
LayerCount: 2
Fore
SplineSet
21 -186 m 1
 58 24 l 1
 146 333 l 1
 201 333 l 1
 181 24 l 1
 144 -186 l 1
 21 -186 l 1
123 394 m 1
 148 540 l 1
 271 540 l 1
 246 394 l 1
 123 394 l 1
EndSplineSet
EndChar

StartChar: question
Encoding: 63 63 159
Width: 501
Flags: MW
HStem: 0 146<220 317 194 343> 620 124<340 381>
VStem: 434 117<539 558.5>
LayerCount: 2
Fore
SplineSet
339 201 m 1
 239 201 l 1
 245 277 278 333 354 399 c 0
 400 438 408 447 421 473 c 1
 429 492 434 512 434 533 c 0
 434 584 403 620 359 620 c 0
 304 620 263 569 250 481 c 1
 138 481 l 1
 154 568 173 618 207 662 c 0
 251 717 306 744 374 744 c 0
 430 744 475 727 504 696 c 0
 533 666 551 616 551 566 c 0
 551 512 535 452 510 413 c 0
 492 386 462 356 415 320 c 1
 359 279 351 267 339 201 c 1
343 146 m 1
 317 0 l 1
 194 0 l 1
 220 146 l 1
 343 146 l 1
EndSplineSet
EndChar

StartChar: questiondown
Encoding: 191 191 160
Width: 501
Flags: MW
HStem: -204 124<214 254> 394 146<251 400 277 375>
VStem: 43 117<-19 -3.5>
LayerCount: 2
Fore
SplineSet
255 339 m 1
 355 339 l 1
 349 263 316 207 240 141 c 0
 194 102 185 92 174 67 c 0
 165 48 160 25 160 6 c 0
 160 -44 192 -80 236 -80 c 0
 291 -80 331 -28 345 59 c 1
 456 59 l 1
 440 -29 421 -78 387 -122 c 0
 344 -177 288 -204 220 -204 c 0
 111 -204 43 -136 43 -26 c 0
 43 19 55 73 75 111 c 0
 93 146 123 177 180 220 c 0
 236 262 243 273 255 339 c 1
251 394 m 1
 277 540 l 1
 400 540 l 1
 375 394 l 1
 251 394 l 1
EndSplineSet
EndChar

StartChar: guillemotright
Encoding: 187 187 161
Width: 456
Flags: W
LayerCount: 2
Fore
SplineSet
268 335 m 1
 248 220 l 1
 85 72 l 1
 105 189 l 1
 204 278 l 1
 136 367 l 1
 156 481 l 1
 268 335 l 1
438 335 m 1
 418 220 l 1
 255 72 l 1
 275 189 l 1
 374 278 l 1
 306 367 l 1
 326 481 l 1
 438 335 l 1
EndSplineSet
EndChar

StartChar: guillemotleft
Encoding: 171 171 162
Width: 456
Flags: W
LayerCount: 2
Fore
SplineSet
111 218 m 1
 131 332 l 1
 294 481 l 1
 273 364 l 1
 175 275 l 1
 242 186 l 1
 223 72 l 1
 111 218 l 1
286 218 m 1
 306 332 l 1
 468 481 l 1
 448 364 l 1
 350 275 l 1
 417 186 l 1
 397 72 l 1
 286 218 l 1
EndSplineSet
EndChar

StartChar: guilsinglright
Encoding: 8250 8250 163
Width: 273
Flags: W
LayerCount: 2
Fore
SplineSet
262 335 m 1
 242 220 l 1
 79 72 l 1
 99 189 l 1
 198 278 l 1
 130 367 l 1
 150 481 l 1
 262 335 l 1
EndSplineSet
EndChar

StartChar: guilsinglleft
Encoding: 8249 8249 164
Width: 273
Flags: W
LayerCount: 2
Fore
SplineSet
105 218 m 1
 125 332 l 1
 288 481 l 1
 267 364 l 1
 169 275 l 1
 236 186 l 1
 217 72 l 1
 105 218 l 1
EndSplineSet
EndChar

StartChar: slash
Encoding: 47 47 165
Width: 228
Flags: MW
HStem: -14 20
LayerCount: 2
Fore
SplineSet
295 714 m 1
 350 714 l 1
 54 -14 l 1
 -1 -14 l 1
 295 714 l 1
EndSplineSet
EndChar

StartChar: hyphen
Encoding: 45 45 166
Width: 273
Flags: MW
HStem: 207 135<81 280 57 304>
LayerCount: 2
Fore
SplineSet
304 342 m 1
 280 207 l 1
 57 207 l 1
 81 342 l 1
 304 342 l 1
EndSplineSet
EndChar

StartChar: sfthyphen
Encoding: 173 173 167
Width: 273
Flags: MW
HStem: 207 135<81 280 57 304>
LayerCount: 2
Fore
SplineSet
304 342 m 1
 280 207 l 1
 57 207 l 1
 81 342 l 1
 304 342 l 1
EndSplineSet
EndChar

StartChar: endash
Encoding: 8211 8211 168
Width: 456
Flags: MW
HStem: 207 104<47 494 29 512>
LayerCount: 2
Fore
SplineSet
512 311 m 1
 494 207 l 1
 29 207 l 1
 47 311 l 1
 512 311 l 1
EndSplineSet
EndChar

StartChar: emdash
Encoding: 8212 8212 169
Width: 820
Flags: MW
HStem: 207 104<48 859 30 877>
LayerCount: 2
Fore
SplineSet
877 311 m 1
 859 207 l 1
 30 207 l 1
 48 311 l 1
 877 311 l 1
EndSplineSet
EndChar

StartChar: parenleft
Encoding: 40 40 170
Width: 273
Flags: MW
HStem: 709 20<294 376 376 376>
VStem: 69 98<73 212 64 223.5>
LayerCount: 2
Fore
SplineSet
294 729 m 1
 376 729 l 1
 223 477 167 312 167 112 c 0
 167 16 177 -52 214 -200 c 1
 132 -200 l 1
 89 -79 69 24 69 122 c 0
 69 325 137 508 294 729 c 1
EndSplineSet
EndChar

StartChar: parenright
Encoding: 41 41 171
Width: 273
Flags: MW
HStem: 709 20<145 227 227 227>
VStem: 194 98<349 456 304.5 465>
LayerCount: 2
Fore
SplineSet
65 -200 m 1
 -17 -200 l 1
 44 -100 73 -47 102 16 c 0
 164 153 194 282 194 416 c 0
 194 514 184 581 145 729 c 1
 227 729 l 1
 272 605 292 506 292 406 c 0
 292 203 224 23 65 -200 c 1
EndSplineSet
EndChar

StartChar: bracketleft
Encoding: 91 91 172
Width: 273
Flags: MW
HStem: -200 100<143 218> 629 100<269 362 269 269>
LayerCount: 2
Fore
SplineSet
380 729 m 1
 362 629 l 1
 269 629 l 1
 143 -100 l 1
 236 -100 l 1
 218 -200 l 1
 19 -200 l 1
 181 729 l 1
 380 729 l 1
EndSplineSet
EndChar

StartChar: bracketright
Encoding: 93 93 173
Width: 273
Flags: MW
HStem: -200 100<-21 89 -3 89 -3 178> 629 100<141 216 123 340>
LayerCount: 2
Fore
SplineSet
-21 -200 m 1
 -3 -100 l 1
 89 -100 l 1
 216 629 l 1
 123 629 l 1
 141 729 l 1
 340 729 l 1
 178 -200 l 1
 -21 -200 l 1
EndSplineSet
EndChar

StartChar: ampersand
Encoding: 38 38 174
Width: 592
Flags: MW
HStem: -23 116<239 267.5> 615 108<352 380.5>
VStem: 73 112<161.5 193> 202 112<543 570.5 543 576.5> 410 102<582.5 586.5>
LayerCount: 2
Fore
SplineSet
498 373 m 1
 590 373 l 1
 581 299 543 214 494 160 c 1
 571 0 l 1
 440 0 l 1
 409 60 l 1
 335 -6 299 -23 236 -23 c 0
 134 -23 73 43 73 155 c 0
 73 231 103 296 160 344 c 0
 185 366 204 378 245 401 c 1
 215 453 202 491 202 523 c 0
 202 630 287 723 386 723 c 0
 461 723 512 675 512 606 c 0
 512 559 494 504 466 468 c 0
 447 444 423 422 382 392 c 1
 448 255 l 1
 477 286 489 315 498 373 c 1
285 319 m 1
 242 290 l 2
 202 262 185 232 185 187 c 0
 185 136 219 93 259 93 c 0
 287 93 311 106 366 152 c 1
 285 319 l 1
344 470 m 1
 355 478 l 1
 387 499 410 540 410 574 c 0
 410 599 393 615 368 615 c 0
 336 615 314 589 314 552 c 0
 314 534 318 524 344 470 c 1
EndSplineSet
EndChar

StartChar: section
Encoding: 167 167 175
Width: 456
Flags: W
HStem: -201 112<194.5 225.5> 621 102<319.5 345>
VStem: 46 112<-52 -50> 73 107<227.5 319.5> 146 121<503.5 576.5> 286 121<-35.5 47.5> 367 107<257 259.5> 380 109<559.5 634.5>
LayerCount: 2
Fore
SplineSet
483 544 m 1xc9
 379 544 l 1
 380 552 380 557 380 562 c 0xd1
 380 599 361 621 329 621 c 0
 294 621 267 594 267 559 c 0
 267 538 284 516 325 485 c 2
 418 415 l 1
 456 385 474 350 474 303 c 0xca
 474 211 443 160 367 126 c 1
 394 99 407 68 407 27 c 0
 407 -20 389 -74 360 -115 c 0
 319 -172 261 -201 190 -201 c 0
 102 -201 46 -146 46 -59 c 0
 46 -41 48 -27 54 0 c 1
 161 0 l 1
 159 -21 158 -28 158 -34 c 0xe4
 158 -70 177 -89 212 -89 c 0
 253 -89 286 -56 286 -15 c 0
 286 11 281 18 240 49 c 1
 118 149 l 2
 89 172 73 208 73 247 c 0xd4
 73 324 97 365 177 428 c 1
 155 456 146 484 146 523 c 0
 146 572 167 625 202 662 c 1
 238 702 290 723 349 723 c 0
 436 723 489 675 489 594 c 0
 489 581 488 570 483 544 c 1xc9
211 247 m 2
 314 170 l 1
 353 192 367 213 367 247 c 0xc2
 367 272 359 284 330 306 c 2
 226 382 l 1
 194 361 180 337 180 302 c 0
 180 278 188 265 211 247 c 2
EndSplineSet
EndChar

StartChar: dagger
Encoding: 8224 8224 176
Width: 456
Flags: MW
HStem: 369 116<110 237 90 257 367 494 110 347>
LayerCount: 2
Fore
SplineSet
514 485 m 1
 494 369 l 1
 347 369 l 1
 249 -194 l 1
 139 -194 l 1
 237 369 l 1
 90 369 l 1
 110 485 l 1
 257 485 l 1
 296 709 l 1
 406 709 l 1
 367 485 l 1
 514 485 l 1
EndSplineSet
EndChar

StartChar: daggerdbl
Encoding: 8225 8225 177
Width: 456
Flags: MW
HStem: 30 116<49 175 29 196 306 432 49 285> 369 116<108 235 88 255 365 491 108 344>
LayerCount: 2
Fore
SplineSet
511 485 m 1
 491 369 l 1
 344 369 l 1
 306 146 l 1
 452 146 l 1
 432 30 l 1
 285 30 l 1
 246 -194 l 1
 136 -194 l 1
 175 30 l 1
 29 30 l 1
 49 146 l 1
 196 146 l 1
 235 369 l 1
 88 369 l 1
 108 485 l 1
 255 485 l 1
 294 709 l 1
 404 709 l 1
 365 485 l 1
 511 485 l 1
EndSplineSet
EndChar

StartChar: asterisk
Encoding: 42 42 178
Width: 319
Flags: MW
HStem: 709 20<252 311 311 311>
LayerCount: 2
Fore
SplineSet
202 544 m 1
 119 580 l 1
 149 649 l 1
 232 613 l 1
 252 729 l 1
 311 729 l 1
 291 613 l 1
 386 649 l 1
 392 579 l 1
 297 544 l 1
 335 450 l 1
 280 407 l 1
 242 501 l 1
 170 407 l 1
 130 450 l 1
 202 544 l 1
EndSplineSet
EndChar

StartChar: quotesingle
Encoding: 39 39 179
Width: 195
Flags: MW
HStem: 709 20<168 281 281 281>
LayerCount: 2
Fore
SplineSet
281 729 m 1
 259 599 l 1
 201 470 l 1
 156 470 l 1
 145 599 l 1
 168 729 l 1
 281 729 l 1
EndSplineSet
EndChar

StartChar: quotedbl
Encoding: 34 34 180
Width: 389
Flags: MW
HStem: 709 20<168 281 281 281 361 475 475 475>
LayerCount: 2
Fore
SplineSet
281 729 m 1
 259 599 l 1
 201 470 l 1
 156 470 l 1
 145 599 l 1
 168 729 l 1
 281 729 l 1
475 729 m 1
 452 599 l 1
 395 470 l 1
 349 470 l 1
 339 599 l 1
 361 729 l 1
 475 729 l 1
EndSplineSet
EndChar

StartChar: at
Encoding: 64 64 181
Width: 800
Flags: W
HStem: -64 102<337 416> 115 106<332.5 432> 116 106<590 609.5> 477 92<475 512> 682 102<494 570.5>
VStem: 83 100<205 301.5 198 302.5> 258 102<264.5 281.5> 747 91<444.5 495>
LayerCount: 2
Fore
SplineSet
605 561 m 1x57
 698 561 l 1
 586 282 l 2
 576 259 574 253 574 243 c 0
 573 230 583 222 597 222 c 0
 626 222 665 255 697 305 c 0
 729 354 747 416 747 472 c 0
 747 518 732 563 702 602 c 0
 661 656 607 682 534 682 c 0
 423 682 324 617 253 497 c 0
 207 421 183 340 183 263 c 0
 183 133 274 38 400 38 c 0
 459 38 513 51 573 80 c 1
 585 -16 l 1
 577 -20 l 1
 563 -27 l 2
 516 -50 449 -64 383 -64 c 0
 285 -64 210 -33 158 28 c 0
 110 85 83 163 83 247 c 0
 83 358 137 496 220 602 c 1
 315 720 432 784 556 784 c 0
 655 784 734 743 787 664 c 0
 823 611 838 559 838 490 c 0
 838 399 815 321 768 250 c 0
 712 165 642 116 577 116 c 0xbf
 532 116 501 144 491 191 c 1
 449 142 404 115 364 115 c 0
 301 115 258 171 258 252 c 0
 258 311 285 386 331 453 c 0
 383 530 443 569 507 569 c 0
 548 569 569 555 588 514 c 1
 605 561 l 1x57
499 477 m 0
 436 477 360 371 360 284 c 0
 360 245 376 221 403 221 c 0x57
 461 221 541 339 541 426 c 0
 541 458 525 477 499 477 c 0
EndSplineSet
EndChar

StartChar: numbersign
Encoding: 35 35 182
Width: 456
Flags: MW
HStem: 172 100<49 95 32 129 49 182 215 266 386 450> 424 100<116 180 99 213 116 266 299 350 470 524>
LayerCount: 2
Fore
SplineSet
113 -32 m 1
 27 -32 l 1
 95 172 l 1
 32 172 l 1
 49 272 l 1
 129 272 l 1
 180 424 l 1
 99 424 l 1
 116 524 l 1
 213 524 l 1
 272 697 l 1
 358 697 l 1
 299 524 l 1
 384 524 l 1
 442 697 l 1
 529 697 l 1
 470 524 l 1
 541 524 l 1
 524 424 l 1
 437 424 l 1
 386 272 l 1
 467 272 l 1
 450 172 l 1
 352 172 l 1
 284 -32 l 1
 198 -32 l 1
 266 172 l 1
 182 172 l 1
 113 -32 l 1
215 272 m 1
 299 272 l 1
 350 424 l 1
 266 424 l 1
 215 272 l 1
EndSplineSet
EndChar

StartChar: degree
Encoding: 176 176 183
Width: 328
Flags: MW
HStem: 383 63<166.5 207 166.5 221> 623 63<167 207.5>
VStem: 63 52<510 559 510 576.5> 259 52<509.5 560>
LayerCount: 2
Fore
SplineSet
187 686 m 0
 256 686 311 619 311 535 c 0
 311 449 256 383 186 383 c 0
 119 383 63 452 63 535 c 0
 63 618 119 686 187 686 c 0
187 623 m 0
 147 623 115 584 115 534 c 0
 115 486 147 446 186 446 c 0
 228 446 259 484 259 535 c 0
 259 585 228 623 187 623 c 0
EndSplineSet
EndChar

StartChar: plus
Encoding: 43 43 184
Width: 479
Flags: MW
HStem: -10 20 172 119<41 190 41 190 288 437 41 288>
VStem: 190 98<-10 172 -10 172 291 473>
LayerCount: 2
Fore
SplineSet
437 291 m 1
 437 172 l 1
 288 172 l 1
 288 -10 l 1
 190 -10 l 1
 190 172 l 1
 41 172 l 1
 41 291 l 1
 190 291 l 1
 190 473 l 1
 288 473 l 1
 288 291 l 1
 437 291 l 1
EndSplineSet
EndChar

StartChar: minus
Encoding: 8722 8722 185
Width: 479
Flags: MW
HStem: 172 119<33 446 33 446>
LayerCount: 2
Fore
SplineSet
446 291 m 1
 446 172 l 1
 33 172 l 1
 33 291 l 1
 446 291 l 1
EndSplineSet
EndChar

StartChar: multiply
Encoding: 215 215 186
Width: 479
Flags: W
LayerCount: 2
Fore
SplineSet
345 444 m 1
 414 360 l 1
 308 231 l 1
 414 102 l 1
 345 18 l 1
 239 147 l 1
 135 19 l 1
 66 103 l 1
 170 231 l 1
 65 359 l 1
 134 444 l 1
 239 315 l 1
 345 444 l 1
EndSplineSet
EndChar

StartChar: divide
Encoding: 247 247 187
Width: 479
Flags: MW
HStem: -11 123<189 291 189 291> 172 119<41 438 41 438> 351 123<189 291 189 291>
VStem: 189 102<-11 112 -11 112 351 474>
LayerCount: 2
Fore
SplineSet
438 291 m 1
 438 172 l 1
 41 172 l 1
 41 291 l 1
 438 291 l 1
189 474 m 1
 291 474 l 1
 291 351 l 1
 189 351 l 1
 189 474 l 1
189 112 m 1
 291 112 l 1
 291 -11 l 1
 189 -11 l 1
 189 112 l 1
EndSplineSet
EndChar

StartChar: equal
Encoding: 61 61 188
Width: 479
Flags: MW
HStem: 52 119<41 438 41 438> 292 119<41 438 41 438>
LayerCount: 2
Fore
SplineSet
438 411 m 1
 438 292 l 1
 41 292 l 1
 41 411 l 1
 438 411 l 1
438 171 m 1
 438 52 l 1
 41 52 l 1
 41 171 l 1
 438 171 l 1
EndSplineSet
EndChar

StartChar: trademark
Encoding: 8482 8482 189
Width: 820
Flags: MW
HStem: 651 78<58 171 58 357 249 357 249 249>
VStem: 171 78<273 651 273 651> 398 75<273 622 273 729> 687 75<273 622 622 622>
LayerCount: 2
Fore
SplineSet
249 651 m 1
 249 273 l 1
 171 273 l 1
 171 651 l 1
 58 651 l 1
 58 729 l 1
 357 729 l 1
 357 651 l 1
 249 651 l 1
619 273 m 1
 542 273 l 1
 473 622 l 1
 473 273 l 1
 398 273 l 1
 398 729 l 1
 511 729 l 1
 581 379 l 1
 649 729 l 1
 762 729 l 1
 762 273 l 1
 687 273 l 1
 687 622 l 1
 619 273 l 1
EndSplineSet
EndChar

StartChar: paragraph
Encoding: 182 182 190
Width: 456
Flags: MW
HStem: 656 73<381 432 381 381 513 548 513 513>
LayerCount: 2
Fore
SplineSet
561 729 m 1
 548 656 l 1
 513 656 l 1
 365 -191 l 1
 285 -191 l 1
 432 656 l 1
 381 656 l 1
 233 -191 l 1
 153 -191 l 1
 233 267 l 1
 150 272 99 337 99 436 c 0
 99 513 125 587 172 649 c 0
 213 702 260 729 313 729 c 2
 561 729 l 1
EndSplineSet
EndChar

StartChar: currency
Encoding: 164 164 191
Width: 456
Flags: MW
HStem: 82 111<218.5 248.5> 396 110<215.5 244.5 215.5 251.5> 522 20<87 87>
VStem: 57 88<274 311.5> 312 88<275.5 314 275.5 321>
LayerCount: 2
Fore
SplineSet
317 477 m 1
 368 538 l 1
 431 461 l 1
 379 397 l 1
 394 362 400 333 400 295 c 0
 400 256 393 221 378 188 c 1
 431 124 l 1
 368 47 l 1
 315 111 l 1
 281 88 263 82 234 82 c 0
 203 82 168 93 144 111 c 1
 89 45 l 1
 25 122 l 1
 80 189 l 1
 63 227 57 255 57 293 c 0
 57 330 65 366 79 397 c 1
 24 464 l 1
 87 542 l 1
 142 476 l 1
 168 495 201 506 230 506 c 0
 259 506 294 494 317 477 c 1
230 396 m 0
 184 396 145 349 145 294 c 0
 145 239 183 193 229 193 c 0
 275 193 312 239 312 294 c 0
 312 348 273 396 230 396 c 0
EndSplineSet
EndChar

StartChar: quotesinglbase
Encoding: 8218 8218 192
Width: 228
Flags: MW
HStem: 0 125<75 119 53 187>
LayerCount: 2
Fore
SplineSet
75 125 m 1
 187 125 l 1
 168 16 l 1
 158 -72 107 -128 30 -135 c 1
 38 -89 l 1
 85 -79 112 -50 119 0 c 1
 53 0 l 1
 75 125 l 1
EndSplineSet
EndChar

StartChar: quoteright
Encoding: 8217 8217 193
Width: 228
Flags: MW
HStem: 604 125<180 224 158 292>
LayerCount: 2
Fore
SplineSet
180 729 m 1
 292 729 l 1
 273 620 l 1
 263 532 212 476 135 469 c 1
 143 515 l 1
 190 525 217 554 224 604 c 1
 158 604 l 1
 180 729 l 1
EndSplineSet
EndChar

StartChar: braceleft
Encoding: 123 123 194
Width: 319
Flags: W
HStem: 709 20<325 387 387 387>
VStem: 83 99<-130 -71.5> 127 98
LayerCount: 2
Fore
SplineSet
387 729 m 1xa0
 370 630 l 1
 340 630 l 2
 309 630 301 620 293 573 c 2
 259 378 l 2
 246 306 220 277 160 269 c 1
 181 265 188 262 197 257 c 0
 214 248 225 226 225 201 c 0xa0
 225 191 223 174 221 159 c 2
 187 -36 l 2
 184 -52 182 -67 182 -76 c 0
 182 -92 193 -101 214 -101 c 2
 242 -101 l 1
 225 -200 l 1
 163 -200 l 2
 115 -200 83 -160 83 -100 c 0xc0
 83 -86 84 -72 86 -60 c 2
 123 150 l 2
 126 165 127 177 127 184 c 0
 127 208 110 222 82 222 c 2
 72 222 l 1
 69 223 l 1
 85 315 l 1
 88 315 l 1
 99 315 l 2
 135 315 156 336 163 378 c 2
 199 589 l 2
 215 679 260 729 325 729 c 2
 387 729 l 1xa0
EndSplineSet
EndChar

StartChar: braceright
Encoding: 125 125 195
Width: 319
Flags: W
HStem: 709 20<186 249 249 273>
VStem: 187 98<333 333.5> 230 99
LayerCount: 2
Fore
SplineSet
24 -200 m 1xc0
 41 -101 l 1
 72 -101 l 2
 103 -101 111 -91 119 -44 c 2
 153 151 l 2
 166 223 192 252 252 260 c 1
 231 264 224 267 215 272 c 0
 198 281 187 303 187 329 c 0xc0
 187 338 189 355 191 370 c 2
 225 565 l 2
 228 581 230 596 230 605 c 0
 230 621 219 630 198 630 c 2
 169 630 l 1
 186 729 l 1
 249 729 l 2
 297 729 329 689 329 628 c 0xa0
 329 615 328 601 326 589 c 2
 289 379 l 2
 286 364 285 352 285 345 c 0
 285 321 302 307 329 307 c 2
 341 307 l 1
 344 306 l 1
 328 214 l 1
 324 214 l 1
 313 214 l 2
 277 214 256 194 249 151 c 2
 212 -60 l 2
 197 -150 152 -200 87 -200 c 2
 24 -200 l 1xc0
EndSplineSet
EndChar

StartChar: ordfeminine
Encoding: 170 170 196
Width: 303
Flags: W
HStem: 262 80<93 311 79 325> 385 68<157.5 232.5> 661 68<248.5 277>
VStem: 110 71<473.5 495> 264 70<412.5 436.5> 300 70<629 679.5>
LayerCount: 2
Fore
SplineSet
325 342 m 1xe8
 311 262 l 1
 79 262 l 1
 93 342 l 1
 325 342 l 1xe8
345 409 m 1
 343 399 l 1
 268 399 l 1
 265 406 264 410 264 415 c 0xf8
 264 417 264 422 265 427 c 2
 266 431 l 1
 236 398 211 385 179 385 c 0
 136 385 110 415 110 464 c 0
 110 526 150 575 210 586 c 1
 238 592 l 1
 274 598 274 598 284 604 c 0
 294 610 300 622 300 636 c 0
 300 654 290 661 264 661 c 0
 233 661 218 649 209 617 c 1
 145 617 l 1
 158 692 202 729 277 729 c 0
 336 729 370 702 370 657 c 0xf4
 370 649 369 640 367 629 c 2
 336 449 l 2
 335 442 334 437 334 436 c 0
 334 429 338 419 345 409 c 1
282 529 m 2
 286 552 l 1
 281 549 279 548 273 546 c 2
 255 543 l 1
 231 537 l 1
 200 531 181 510 181 483 c 0
 181 464 194 453 216 453 c 0
 249 453 274 481 282 529 c 2
EndSplineSet
EndChar

StartChar: ordmasculine
Encoding: 186 186 197
Width: 299
Flags: MW
HStem: 262 80<89 322 75 336> 386 63<219.5 246> 661 68<253 281>
VStem: 114 71<499.5 531.5> 315 71<583.5 612>
LayerCount: 2
Fore
SplineSet
336 342 m 1
 322 262 l 1
 75 262 l 1
 89 342 l 1
 336 342 l 1
278 729 m 0
 345 729 386 684 386 610 c 0
 386 557 369 494 344 456 c 0
 314 410 272 386 220 386 c 0
 155 386 114 433 114 505 c 0
 114 558 131 621 156 659 c 0
 185 704 228 729 278 729 c 0
266 661 m 0
 223 661 185 596 185 521 c 0
 185 478 205 449 234 449 c 0
 277 449 315 515 315 591 c 0
 315 633 296 661 266 661 c 0
EndSplineSet
EndChar

StartChar: plusminus
Encoding: 177 177 198
Width: 479
Flags: MW
HStem: -16 119<46 432 46 432> 313 119<46 190 46 190 288 432 46 288>
VStem: 190 98<137 313 137 313 432 608>
LayerCount: 2
Fore
SplineSet
432 103 m 1
 432 -16 l 1
 46 -16 l 1
 46 103 l 1
 432 103 l 1
432 432 m 1
 432 313 l 1
 288 313 l 1
 288 137 l 1
 190 137 l 1
 190 313 l 1
 46 313 l 1
 46 432 l 1
 190 432 l 1
 190 608 l 1
 288 608 l 1
 288 432 l 1
 432 432 l 1
EndSplineSet
EndChar

StartChar: onehalf
Encoding: 189 189 199
Width: 684
Flags: MW
HStem: -20 20 0 80<490 627> 362 72<547.5 578.5>
VStem: 608 76<309 331>
LayerCount: 2
Fore
SplineSet
82 573 m 1xf0
 -5 573 l 1
 6 634 l 1
 69 634 111 659 130 709 c 1
 182 709 l 1
 108 284 l 1
 31 284 l 1
 82 573 l 1xf0
510 715 m 1
 580 715 l 1
 103 -20 l 1
 34 -20 l 1
 510 715 l 1
641 80 m 1
 627 0 l 1
 376 0 l 1
 393 81 420 120 491 170 c 0
 550 212 569 228 584 247 c 0
 598 264 608 294 608 317 c 0
 608 345 592 362 565 362 c 0
 530 362 509 332 503 273 c 1
 429 273 l 1
 442 377 494 434 575 434 c 0
 643 434 684 394 684 328 c 0
 684 290 672 253 649 222 c 0
 633 201 614 184 573 153 c 0
 517 111 502 99 490 80 c 1
 641 80 l 1
EndSplineSet
EndChar

StartChar: onequarter
Encoding: 188 188 200
Width: 684
Flags: MW
HStem: -20 20 93 73<475 548 403 562 638 663 475 625>
LayerCount: 2
Fore
SplineSet
96 573 m 1
 9 573 l 1
 20 634 l 1
 83 634 125 659 144 709 c 1
 196 709 l 1
 122 284 l 1
 45 284 l 1
 96 573 l 1
532 715 m 1
 602 715 l 1
 125 -20 l 1
 56 -20 l 1
 532 715 l 1
676 166 m 1
 663 93 l 1
 625 93 l 1
 609 0 l 1
 532 0 l 1
 548 93 l 1
 403 93 l 1
 416 165 l 1
 595 425 l 1
 683 425 l 1
 638 166 l 1
 676 166 l 1
562 166 m 1
 590 332 l 1
 475 166 l 1
 562 166 l 1
EndSplineSet
EndChar

StartChar: threequarters
Encoding: 190 190 201
Width: 684
Flags: W
HStem: -20 20 93 73<482 555 410 568 645 669 482 632> 271 78<71 102.5 71 116> 646 72<110.5 137.5>
VStem: -36 76<381 384> 146 76<402 432> 163 82<602 618.5>
LayerCount: 2
Fore
SplineSet
73 471 m 1xfc
 84 534 l 1
 118 535 131 539 144 553 c 0
 156 566 163 585 163 606 c 0
 163 631 149 646 126 646 c 0
 95 646 81 627 71 571 c 1
 0 571 l 1
 15 672 59 718 141 718 c 0
 208 718 245 685 245 625 c 0xf2
 245 579 226 541 187 512 c 1
 211 494 222 472 222 439 c 0
 222 339 161 271 71 271 c 0
 3 271 -36 310 -36 378 c 0
 -36 390 -35 399 -33 414 c 1
 42 414 l 1
 40 401 40 400 40 396 c 0
 40 366 56 349 86 349 c 0
 119 349 146 382 146 422 c 0
 146 442 139 456 125 464 c 0
 119 468 94 473 84 472 c 0
 75 471 75 471 73 471 c 1xfc
555 715 m 1
 625 715 l 1
 149 -20 l 1
 79 -20 l 1
 555 715 l 1
682 166 m 1
 669 93 l 1
 632 93 l 1
 616 0 l 1
 539 0 l 1
 555 93 l 1
 410 93 l 1
 423 165 l 1
 601 425 l 1
 690 425 l 1
 645 166 l 1
 682 166 l 1
568 166 m 1
 597 332 l 1
 482 166 l 1
 568 166 l 1
EndSplineSet
EndChar

StartChar: fraction
Encoding: 8260 8260 202
Width: 137
Flags: MW
HStem: -20 20
LayerCount: 2
Fore
SplineSet
331 715 m 1
 401 715 l 1
 -75 -20 l 1
 -145 -20 l 1
 331 715 l 1
EndSplineSet
EndChar

StartChar: percent
Encoding: 37 37 203
Width: 729
Flags: W
HStem: -20 98<557 596.5 557 605> 246 98<576.5 615.5> 337 98<231 270.5 231 278.5> 603 98<250 289.5>
VStem: 106 82<482 527.5 482 538.5> 332 82<509 555.5> 432 82<125.5 170.5 125.5 181> 659 82<152.5 198>
LayerCount: 2
Fore
SplineSet
621 709 m 1x3f
 683 709 l 1
 232 -20 l 1
 169 -20 l 1
 621 709 l 1x3f
289 701 m 0
 362 701 414 642 414 557 c 0
 414 441 327 337 230 337 c 0
 159 337 106 399 106 482 c 0
 106 595 194 701 289 701 c 0
272 603 m 0
 228 603 188 554 188 501 c 0
 188 463 214 435 248 435 c 0
 293 435 332 482 332 536 c 0
 332 575 307 603 272 603 c 0
615 344 m 0xcf
 688 344 741 283 741 200 c 0
 741 85 653 -20 557 -20 c 0
 486 -20 432 43 432 125 c 0
 432 237 521 344 615 344 c 0xcf
598 246 m 0
 555 246 514 197 514 144 c 0
 514 107 540 78 574 78 c 0
 619 78 659 126 659 179 c 0
 659 217 633 246 598 246 c 0
EndSplineSet
EndChar

StartChar: perthousand
Encoding: 8240 8240 204
Width: 820
Flags: W
HStem: -21 20 -20 78<384.5 417.5 384.5 424 687.5 720.5> 198 78<401 434 703.5 737> 443 78<210.5 243.5 210.5 250> 661 78<226.5 259.5>
VStem: 110 66<559 598 559 606.5> 285 66<96 136 96 144> 295 66<582.5 621.5> 469 66<119 157.5> 587 66<96.5 135 96.5 143.5> 771 66<118.5 158.5>
LayerCount: 2
Fore
SplineSet
537 738 m 1xbd
 591 738 l 1
 114 -21 l 1
 59 -21 l 1
 537 738 l 1xbd
259 739 m 0
 318 739 361 690 361 622 c 0
 361 529 289 443 211 443 c 0
 153 443 110 493 110 560 c 0
 110 653 181 739 259 739 c 0
245 661 m 0
 208 661 176 621 176 575 c 0
 176 543 196 521 225 521 c 0
 262 521 295 560 295 605 c 0
 295 638 274 661 245 661 c 0
433 276 m 0
 492 276 535 226 535 159 c 0
 535 66 463 -20 385 -20 c 0
 327 -20 285 29 285 97 c 0x62e0
 285 191 355 276 433 276 c 0
420 198 m 0
 382 198 351 159 351 113 c 0
 351 79 370 58 399 58 c 0
 436 58 469 97 469 141 c 0
 469 174 448 198 420 198 c 0
735 276 m 0
 795 276 837 228 837 159 c 0
 837 65 766 -20 688 -20 c 0
 630 -20 587 30 587 97 c 0
 587 190 659 276 735 276 c 0
722 198 m 0
 685 198 653 158 653 112 c 0
 653 81 673 58 702 58 c 0
 739 58 771 96 771 141 c 0
 771 176 752 198 722 198 c 0
EndSplineSet
EndChar

StartChar: backslash
Encoding: 92 92 205
Width: 228
Flags: W
LayerCount: 2
Fore
SplineSet
113 709 m 1
 174 709 l 1
 234 -23 l 1
 172 -23 l 1
 113 709 l 1
EndSplineSet
EndChar

StartChar: dieresis
Encoding: 168 168 206
Width: 273
Flags: MW
HStem: 621 120<142 211 121 233 142 274 295 364>
LayerCount: 2
Fore
SplineSet
233 741 m 1
 211 621 l 1
 121 621 l 1
 142 741 l 1
 233 741 l 1
385 741 m 1
 364 621 l 1
 274 621 l 1
 295 741 l 1
 385 741 l 1
EndSplineSet
EndChar

StartChar: dotaccent
Encoding: 729 729 207
Width: 273
Flags: MW
HStem: 621 120<219 288 198 310>
LayerCount: 2
Fore
SplineSet
310 741 m 1
 288 621 l 1
 198 621 l 1
 219 741 l 1
 310 741 l 1
EndSplineSet
EndChar

StartChar: ring
Encoding: 730 730 208
Width: 273
Flags: MW
HStem: 593 50<235 254 235 257.5> 723 50<247 267>
VStem: 175 40<666.5 688.5 666.5 693.5> 286 40<679.5 701.5>
LayerCount: 2
Fore
SplineSet
266 773 m 0
 301 773 326 744 326 703 c 0
 326 646 281 593 234 593 c 0
 200 593 175 623 175 665 c 0
 175 722 219 773 266 773 c 0
259 723 m 0
 235 723 215 701 215 676 c 0
 215 657 227 643 243 643 c 0
 265 643 286 667 286 692 c 0
 286 711 275 723 259 723 c 0
EndSplineSet
EndChar

StartChar: acute
Encoding: 180 180 209
Width: 273
Flags: W
LayerCount: 2
Fore
SplineSet
390 757 m 1
 260 607 l 1
 203 607 l 1
 286 757 l 1
 390 757 l 1
EndSplineSet
EndChar

StartChar: grave
Encoding: 96 96 210
Width: 273
Flags: MW
HStem: 607 150<226 241 143 277 226 226>
LayerCount: 2
Fore
SplineSet
143 757 m 1
 241 757 l 1
 277 607 l 1
 226 607 l 1
 143 757 l 1
EndSplineSet
EndChar

StartChar: circumflex
Encoding: 710 710 211
Width: 273
Flags: W
LayerCount: 2
Fore
SplineSet
225 757 m 1
 313 757 l 1
 372 610 l 1
 308 610 l 1
 258 707 l 1
 174 610 l 1
 111 610 l 1
 225 757 l 1
EndSplineSet
EndChar

StartChar: caron
Encoding: 711 711 212
Width: 273
Flags: W
LayerCount: 2
Fore
SplineSet
284 610 m 1
 196 610 l 1
 137 757 l 1
 201 757 l 1
 251 660 l 1
 335 757 l 1
 398 757 l 1
 284 610 l 1
EndSplineSet
EndChar

StartChar: breve
Encoding: 728 728 213
Width: 273
Flags: MW
HStem: 611 78<235 273>
VStem: 154 39<683 746.5>
LayerCount: 2
Fore
SplineSet
338 754 m 1
 373 754 l 1
 361 671 305 611 241 611 c 0
 189 611 154 652 154 714 c 0
 154 727 155 737 159 754 c 1
 194 754 l 1
 193 750 193 747 193 746 c 0
 193 710 216 689 254 689 c 0
 296 689 325 711 338 754 c 1
EndSplineSet
EndChar

StartChar: tilde
Encoding: 732 732 214
Width: 273
Flags: W
HStem: 622 71<316.5 327.5> 671 70<174 186.5> 724 20
LayerCount: 2
Fore
SplineSet
366 744 m 1xa0
 410 744 l 1
 393 666 354 622 301 622 c 0xa0
 286 622 271 626 259 633 c 2
 218 658 l 2
 205 666 191 671 182 671 c 0
 166 671 154 657 140 624 c 1
 96 624 l 1
 115 700 150 741 195 741 c 0x40
 220 741 222 741 253 724 c 2
 294 703 l 1
 309 694 312 693 321 693 c 0
 340 693 354 709 366 744 c 1xa0
EndSplineSet
EndChar

StartChar: hungarumlaut
Encoding: 733 733 215
Width: 273
Flags: W
LayerCount: 2
Fore
SplineSet
254 757 m 1
 125 610 l 1
 67 610 l 1
 151 757 l 1
 254 757 l 1
408 757 m 1
 279 610 l 1
 221 610 l 1
 305 757 l 1
 408 757 l 1
EndSplineSet
EndChar

StartChar: cedilla
Encoding: 184 184 216
Width: 273
Flags: MW
HStem: -220 50<82.5 110 82.5 135>
VStem: 150 71<-138 -116>
LayerCount: 2
Fore
SplineSet
126 0 m 1
 167 0 l 1
 134 -62 l 1
 146 -58 156 -56 169 -56 c 0
 202 -56 221 -77 221 -114 c 0
 221 -178 172 -220 98 -220 c 0
 61 -220 36 -214 -11 -192 c 1
 14 -140 l 1
 53 -163 71 -170 94 -170 c 0
 126 -170 150 -151 150 -125 c 0
 150 -107 135 -93 114 -93 c 0
 100 -93 90 -96 70 -106 c 1
 126 0 l 1
EndSplineSet
EndChar

StartChar: ogonek
Encoding: 731 731 217
Width: 273
Flags: MW
HStem: -233 50<128.5 140>
VStem: 19 82<-156.5 -131.5 -156.5 -124>
LayerCount: 2
Fore
SplineSet
142 0 m 1
 204 0 l 1
 149 -38 144 -42 127 -69 c 0
 109 -97 101 -120 101 -143 c 0
 101 -170 114 -183 143 -183 c 0
 164 -183 183 -180 200 -173 c 1
 192 -224 l 1
 165 -231 151 -233 129 -233 c 0
 60 -233 19 -204 19 -157 c 0
 19 -91 57 -43 142 0 c 1
EndSplineSet
EndChar

StartChar: macron
Encoding: 175 175 218
Width: 273
Flags: MW
HStem: 642 80<137 369 123 383>
LayerCount: 2
Fore
SplineSet
383 722 m 1
 369 642 l 1
 123 642 l 1
 137 722 l 1
 383 722 l 1
EndSplineSet
EndChar

StartChar: copyright
Encoding: 169 169 219
Width: 604
Flags: MW
HStem: -22 72<232 369.5 232 387> 128 83<271 323.5 271 344.5> 509 83<273 324.5> 671 72<233 370.5>
VStem: -12 64<276.5 446 276.5 466.5> 133 76<311.5 406 311.5 431.5> 551 64<274.5 447>
LayerCount: 2
Fore
SplineSet
452 431 m 1
 379 431 l 1
 369 485 346 509 303 509 c 0
 243 509 209 454 209 358 c 0
 209 265 242 211 300 211 c 0
 347 211 374 240 379 297 c 1
 454 297 l 1
 449 192 391 128 298 128 c 0
 197 128 133 218 133 360 c 0
 133 503 197 592 300 592 c 0
 389 592 447 531 452 431 c 1
302 743 m 0
 475 743 615 573 615 362 c 0
 615 147 476 -22 298 -22 c 0
 129 -22 -12 152 -12 361 c 0
 -12 572 129 743 302 743 c 0
302 671 m 0
 164 671 52 531 52 361 c 0
 52 192 165 50 299 50 c 0
 440 50 551 187 551 362 c 0
 551 532 439 671 302 671 c 0
EndSplineSet
EndChar

StartChar: registered
Encoding: 174 174 220
Width: 604
Flags: MW
HStem: -22 72<232 369.5 232 387> 313 81<236 320 236 311> 502 81<236 320 236 236> 671 72<233 370.5>
VStem: -12 64<276.5 446 276.5 466.5> 157 79<140 313 394 502> 373 78<436.5 468.5> 551 64<274.5 447>
LayerCount: 2
Fore
SplineSet
236 313 m 1
 236 140 l 1
 157 140 l 1
 157 583 l 1
 352 583 l 2
 415 583 451 539 451 462 c 0
 451 411 434 378 394 354 c 1
 436 330 438 323 440 195 c 0
 441 176 444 169 456 161 c 1
 456 140 l 1
 372 140 l 1
 362 163 360 175 360 219 c 2
 360 247 l 1
 361 255 361 260 361 264 c 0
 361 297 345 313 311 313 c 2
 236 313 l 1
236 394 m 1
 320 394 l 2
 360 394 373 407 373 448 c 0
 373 489 360 502 320 502 c 2
 236 502 l 1
 236 394 l 1
302 743 m 0
 475 743 615 573 615 362 c 0
 615 147 476 -22 298 -22 c 0
 129 -22 -12 152 -12 361 c 0
 -12 572 129 743 302 743 c 0
302 671 m 0
 164 671 52 531 52 361 c 0
 52 192 165 50 299 50 c 0
 440 50 551 187 551 362 c 0
 551 532 439 671 302 671 c 0
EndSplineSet
EndChar

StartChar: bullet
Encoding: 8226 8226 222
Width: 420
Flags: MW
HStem: 520 20<273 358.5>
LayerCount: 2
Fore
SplineSet
322 540 m 0
 395 540 448 484 448 407 c 0
 448 311 360 225 261 225 c 0
 189 225 135 282 135 359 c 0
 135 454 224 540 322 540 c 0
EndSplineSet
EndChar

StartChar: lozenge
Encoding: 9674 9674 223
Width: 405
Flags: MW
HStem: 0 20 724 20<172 223 223 223>
LayerCount: 2
Fore
SplineSet
223 744 m 1
 381 372 l 1
 223 0 l 1
 172 0 l 1
 15 372 l 1
 172 744 l 1
 223 744 l 1
198 60 m 1
 330 372 l 1
 198 684 l 1
 67 372 l 1
 198 60 l 1
EndSplineSet
EndChar

StartChar: increment
Encoding: 8710 8710 224
Width: 502
Flags: MW
HStem: 0 125<121 382 121 544> 709 20<172 331 331 331>
LayerCount: 2
Fore
SplineSet
-41 0 m 1
 172 729 l 1
 331 729 l 1
 544 0 l 1
 -41 0 l 1
121 125 m 1
 382 125 l 1
 251 614 l 1
 121 125 l 1
EndSplineSet
EndChar

StartChar: notequal
Encoding: 8800 8800 225
Width: 450
Flags: MW
HStem: 52 119<41 101 41 153 41 204 259 438> 292 119<41 209 41 264 41 315 369 438>
LayerCount: 2
Fore
SplineSet
101 52 m 1
 41 52 l 1
 41 171 l 1
 153 171 l 1
 209 292 l 1
 41 292 l 1
 41 411 l 1
 264 411 l 1
 318 529 l 1
 397 472 l 1
 369 411 l 1
 438 411 l 1
 438 292 l 1
 315 292 l 1
 259 171 l 1
 438 171 l 1
 438 52 l 1
 204 52 l 1
 149 -69 l 1
 69 -13 l 1
 101 52 l 1
EndSplineSet
EndChar

StartChar: radical
Encoding: 8730 8730 226
Width: 450
Flags: W
LayerCount: 2
Fore
SplineSet
392 913 m 1
 421 908 l 1
 297 -36 l 1
 99 461 l 1
 22 415 l 1
 7 448 l 1
 128 521 l 1
 287 125 l 1
 392 913 l 1
EndSplineSet
EndChar

StartChar: lessequal
Encoding: 8804 8804 227
Width: 450
Flags: MW
HStem: -10 91<23 424 23 424>
LayerCount: 2
Fore
SplineSet
424 81 m 1
 424 -10 l 1
 23 -10 l 1
 23 81 l 1
 424 81 l 1
424 639 m 1
 424 530 l 1
 111 397 l 1
 424 266 l 1
 424 155 l 1
 23 337 l 1
 23 457 l 1
 424 639 l 1
EndSplineSet
EndChar

StartChar: greaterequal
Encoding: 8805 8805 228
Width: 450
Flags: MW
HStem: -10 91<23 424 23 424>
LayerCount: 2
Fore
SplineSet
424 81 m 1
 424 -10 l 1
 23 -10 l 1
 23 81 l 1
 424 81 l 1
23 155 m 1
 23 264 l 1
 336 397 l 1
 23 528 l 1
 23 639 l 1
 424 457 l 1
 424 336 l 1
 23 155 l 1
EndSplineSet
EndChar

StartChar: product
Encoding: 8719 8719 229
Width: 773
Flags: MW
HStem: -281 129<-4 82 224 274 -31 82 406 484 626 684> 715 129<208 266 181 923 408 668 408 408 811 896 811 811>
LayerCount: 2
Fore
SplineSet
208 844 m 1
 923 844 l 1
 896 715 l 1
 811 715 l 1
 626 -152 l 1
 712 -152 l 1
 684 -281 l 1
 378 -281 l 1
 406 -152 l 1
 484 -152 l 1
 668 715 l 1
 408 715 l 1
 224 -152 l 1
 301 -152 l 1
 274 -281 l 1
 -31 -281 l 1
 -4 -152 l 1
 82 -152 l 1
 266 715 l 1
 181 715 l 1
 208 844 l 1
EndSplineSet
EndChar

StartChar: summation
Encoding: 8721 8721 230
Width: 492
Flags: MW
HStem: -132 95<127 362 127 440> 651 95<128 356 128 128>
LayerCount: 2
Fore
SplineSet
434 746 m 1
 434 513 l 1
 359 513 l 1
 356 651 l 1
 128 651 l 1
 281 325 l 1
 127 -37 l 1
 362 -37 l 1
 364 101 l 1
 440 101 l 1
 440 -132 l 1
 31 -132 l 1
 31 -47 l 1
 189 323 l 1
 31 663 l 1
 31 746 l 1
 434 746 l 1
EndSplineSet
EndChar

StartChar: partialdiff
Encoding: 8706 8706 231
Width: 405
Flags: MW
HStem: -16 55<147.5 183.5 147.5 206.5> 355 64<181.5 200 160 224> 680 70<163.5 194.5>
VStem: 18 88<128 212 122.5 217> 296 82<439 486>
LayerCount: 2
Fore
SplineSet
43 716 m 1
 55 722 l 1
 88 741 124 750 162 750 c 0
 287 750 378 604 378 403 c 0
 378 299 354 166 323 99 c 1
 287 24 237 -16 176 -16 c 0
 87 -16 18 72 18 184 c 0
 18 250 40 317 79 366 c 0
 106 401 140 419 180 419 c 0
 220 419 245 407 290 366 c 1
 294 404 296 427 296 451 c 0
 296 521 280 591 255 635 c 0
 238 664 211 680 178 680 c 0
 149 680 149 680 87 646 c 1
 43 716 l 1
282 303 m 1
 260 340 239 355 209 355 c 0
 154 355 106 263 106 161 c 0
 106 84 128 39 167 39 c 0
 200 39 230 72 249 130 c 0
 263 171 269 206 282 303 c 1
EndSplineSet
EndChar

StartChar: pi
Encoding: 960 960 232
Width: 711
Flags: MW
HStem: 0 20 419 121<143 201 118 797 347 347 347 542 689 689 689 771>
LayerCount: 2
Fore
SplineSet
112 0 m 1
 201 419 l 1
 118 419 l 1
 143 540 l 1
 797 540 l 1
 771 419 l 1
 689 419 l 1
 600 0 l 1
 453 0 l 1
 542 419 l 1
 347 419 l 1
 258 0 l 1
 112 0 l 1
EndSplineSet
EndChar

StartChar: Omega
Encoding: 937 937 233
Width: 750
Flags: MW
HStem: 0 135<31 218 60 218 60 334 589 718> 633 136<488 557.5>
VStem: 110 148<305.5 353 253.5 400.5> 656 157<434 521.5>
LayerCount: 2
Fore
SplineSet
31 0 m 1
 60 135 l 1
 218 135 l 1
 138 210 110 265 110 346 c 0
 110 455 162 575 243 654 c 0
 317 725 429 769 535 769 c 0
 698 769 813 647 813 474 c 0
 813 394 789 320 743 255 c 1
 701 198 661 167 589 135 c 1
 747 135 l 1
 718 0 l 1
 416 0 l 1
 442 123 l 1
 582 207 656 327 656 474 c 0
 656 569 600 633 515 633 c 0
 461 633 414 610 362 558 c 0
 291 487 258 406 258 300 c 0
 258 207 287 158 360 123 c 1
 334 0 l 1
 31 0 l 1
EndSplineSet
EndChar

StartChar: less
Encoding: 60 60 234
Width: 500
Flags: W
LayerCount: 2
Fore
SplineSet
643 700 m 1
 609 542 l 1
 256 380 l 1
 540 218 l 1
 507 60 l 1
 73 314 l 1
 101 447 l 1
 643 700 l 1
EndSplineSet
EndChar

StartChar: greater
Encoding: 62 62 235
Width: 500
Flags: W
LayerCount: 2
Fore
SplineSet
19 60 m 1
 53 219 l 1
 406 380 l 1
 122 543 l 1
 155 700 l 1
 589 447 l 1
 560 313 l 1
 19 60 l 1
EndSplineSet
EndChar

StartChar: logicalnot
Encoding: 172 172 236
Width: 479
Flags: MW
HStem: 302 77<33 383 33 446>
VStem: 383 63<90 302 302 302>
LayerCount: 2
Fore
SplineSet
33 379 m 1
 446 379 l 1
 446 90 l 1
 383 90 l 1
 383 302 l 1
 33 302 l 1
 33 379 l 1
EndSplineSet
EndChar

StartChar: asciicircum
Encoding: 94 94 237
Width: 500
Flags: W
LayerCount: 2
Fore
SplineSet
213 390 m 1
 65 390 l 1
 317 754 l 1
 503 754 l 1
 600 390 l 1
 451 390 l 1
 386 641 l 1
 213 390 l 1
EndSplineSet
EndChar

StartChar: bar
Encoding: 124 124 238
Width: 250
Flags: MW
HStem: 730 20<204 364 364 364>
LayerCount: 2
Fore
SplineSet
204 750 m 1
 364 750 l 1
 165 -187 l 1
 5 -187 l 1
 204 750 l 1
EndSplineSet
EndChar

StartChar: brokenbar
Encoding: 166 166 239
Width: 250
Flags: MW
HStem: 730 20<204 364 364 364>
LayerCount: 2
Fore
SplineSet
204 750 m 1
 364 750 l 1
 281 357 l 1
 121 357 l 1
 204 750 l 1
82 173 m 1
 242 173 l 1
 165 -187 l 1
 5 -187 l 1
 82 173 l 1
EndSplineSet
EndChar

StartChar: underscore
Encoding: 95 95 240
Width: 500
Flags: MW
HStem: -169 109<-44 496 -67 519>
LayerCount: 2
Fore
SplineSet
-44 -60 m 1
 519 -60 l 1
 496 -169 l 1
 -67 -169 l 1
 -44 -60 l 1
EndSplineSet
EndChar

StartChar: asciitilde
Encoding: 126 126 241
Width: 500
Flags: W
HStem: 632 146<473.5 542> 694 147<273.5 338>
LayerCount: 2
Fore
SplineSet
192 625 m 1x40
 125 687 l 1
 164 753 185 779 216 805 c 0
 241 826 286 841 322 841 c 0x40
 354 841 390 831 431 810 c 0
 472 790 508 778 529 778 c 0
 555 778 579 795 622 844 c 1
 690 782 l 1
 646 708 632 689 605 668 c 0
 581 649 528 632 492 632 c 0x80
 455 632 422 642 353 675 c 0
 327 687 302 694 284 694 c 0
 263 694 229 668 192 625 c 1x40
EndSplineSet
EndChar

StartChar: mu
Encoding: 956 956 242
Width: 504
Flags: MW
HStem: -11 115<247 261.5> 520 20<119 261 261 261 472 614 614 614>
LayerCount: 2
Fore
SplineSet
-37 -192 m 1
 119 540 l 1
 261 540 l 1
 200 256 l 2
 194 226 190 200 190 187 c 0
 190 136 222 104 272 104 c 0
 338 104 392 165 413 260 c 2
 472 540 l 1
 614 540 l 1
 499 0 l 1
 357 0 l 1
 373 73 l 1
 353 39 343 26 328 14 c 1
 307 -1 276 -11 247 -11 c 0
 206 -11 181 8 158 57 c 1
 105 -192 l 1
 -37 -192 l 1
EndSplineSet
EndChar
